/* XPM */
static char *_9b43e8bde6e4e88a8872064a6ee225d4pGWfLbqbkAzdd9O[] = {
/* columns rows colors chars-per-pixel */
"64 64 256 2 ",
"   c #000B15",
".  c #031519",
"X  c #020C0D",
"o  c #021C24",
"O  c #021926",
"+  c #151F38",
"@  c #012629",
"#  c #022737",
"$  c #05353A",
"%  c #152F35",
"&  c #102D2E",
"*  c #081F43",
"=  c #052D45",
"-  c #013442",
";  c #013A4B",
":  c #023847",
">  c #183948",
",  c #012953",
"<  c #013454",
"1  c #003C54",
"2  c #02395C",
"3  c #1F3651",
"4  c #22354D",
"5  c #22354E",
"6  c #053963",
"7  c #05454B",
"8  c #18454C",
"9  c #044757",
"0  c #174559",
"q  c #06525A",
"w  c #185659",
"e  c #1C554C",
"r  c #284858",
"t  c #285357",
"y  c #305257",
"u  c #044A67",
"i  c #025462",
"p  c #005B65",
"a  c #02546C",
"s  c #015C6C",
"d  c #0C586A",
"f  c #034B74",
"g  c #015B73",
"h  c #035C7C",
"j  c #085777",
"k  c #155876",
"l  c #1A5069",
"z  c #284A64",
"x  c #285967",
"c  c #34556E",
"v  c #05646D",
"b  c #046778",
"n  c #176779",
"m  c #06737C",
"M  c #18747A",
"N  c #29646B",
"B  c #396876",
"V  c #277A7B",
"C  c #356D71",
"Z  c #47586D",
"A  c #496E78",
"S  c #66757A",
"D  c #4D4B54",
"F  c #6A857C",
"G  c #045C83",
"H  c #165C82",
"J  c #036885",
"K  c #007484",
"L  c #057789",
"P  c #017C92",
"I  c #037798",
"U  c #157089",
"Y  c #2B6A85",
"T  c #2E7490",
"R  c #027EA7",
"E  c #2F5C86",
"W  c #4A7684",
"Q  c #51778D",
"!  c #657A89",
"~  c #6A7C91",
"^  c #527DA5",
"/  c #02848C",
"(  c #018394",
")  c #02879A",
"_  c #1B8897",
"`  c #179A9D",
"'  c #388897",
"]  c #29949C",
"[  c #2E8892",
"{  c #0189A4",
"}  c #0395A7",
"|  c #039AB2",
" . c #1795A4",
".. c #2D93A8",
"X. c #07A6B7",
"o. c #11ACB8",
"O. c #2CA8B1",
"+. c #508B96",
"@. c #688896",
"#. c #6C8898",
"$. c #5386A6",
"%. c #5897A3",
"&. c #4B93AD",
"*. c #7797A8",
"=. c #6991AC",
"-. c #4FACBB",
";. c #78A7B6",
":. c #70A9B2",
">. c #09B5C9",
",. c #18B4C7",
"<. c #05BAD7",
"1. c #16BCD7",
"2. c #09A9C9",
"3. c #2DB1C7",
"4. c #02BDE7",
"5. c #11BCED",
"6. c #51B4C7",
"7. c #7BBCC6",
"8. c #6DB1CE",
"9. c #7DBDE3",
"0. c #01C4DC",
"q. c #01CBDC",
"w. c #06C6D8",
"e. c #15C5DB",
"r. c #01D2DD",
"t. c #0BD1DC",
"y. c #0AC9D1",
"u. c #27C6D8",
"i. c #31CED7",
"p. c #01C5E4",
"a. c #01CBE4",
"s. c #01C6EA",
"d. c #0AC4EB",
"f. c #01CAEB",
"g. c #0BCCEC",
"h. c #0AC7E4",
"j. c #14C7E6",
"k. c #01D3E5",
"l. c #01DAE5",
"z. c #01D3EC",
"x. c #0BD4EB",
"c. c #02DBED",
"v. c #0BDBEC",
"b. c #0AD2E5",
"n. c #16D7E9",
"m. c #02C5F1",
"M. c #01CBF3",
"N. c #09CAF5",
"B. c #02D4F3",
"V. c #0AD4F4",
"C. c #01DCF4",
"Z. c #0BDCF3",
"A. c #02D5FA",
"S. c #0AD4FB",
"D. c #02DCFB",
"F. c #0ADCFB",
"G. c #17DAF5",
"H. c #17C8FA",
"J. c #27D9E9",
"K. c #33DBE9",
"L. c #27DEF7",
"P. c #27CDE6",
"I. c #02E2ED",
"U. c #0BE2EC",
"Y. c #0CE1E7",
"T. c #16E2EA",
"R. c #01E2F4",
"E. c #0CE2F5",
"W. c #02E2FC",
"Q. c #0BE3FD",
"!. c #02EAFD",
"~. c #0BEBFD",
"^. c #01E9F4",
"/. c #14E3F4",
"(. c #1BE3F4",
"). c #13E4FB",
"_. c #13EBFD",
"`. c #1BEBFD",
"'. c #1AE7F7",
"]. c #1BF2FF",
"[. c #09F1FE",
"{. c #27E5EB",
"}. c #24ECFE",
"|. c #27E7F7",
" X c #34ECFE",
".X c #3BECFD",
"XX c #35E6F7",
"oX c #2CF3FE",
"OX c #25F4FF",
"+X c #34F2FE",
"@X c #3AF5FB",
"#X c #31ECEE",
"$X c #53CCD7",
"%X c #6BC6D3",
"&X c #46D6E8",
"*X c #55D9E7",
"=X c #44DFF3",
"-X c #69DBE5",
";X c #44ECFC",
":X c #48E9F7",
">X c #59E9FA",
",X c #4BF3FD",
"<X c #43F5FD",
"1X c #58F8FD",
"2X c #4EE2EB",
"3X c #75E6EB",
"4X c #66EAF7",
"5X c #78E9FA",
"6X c #67F8FC",
"7X c #78F8FE",
"8X c #6AE3EA",
"9X c #54E0D3",
"0X c #8597A5",
"qX c #869AB3",
"wX c #89A8B8",
"eX c #87B2BC",
"rX c #95ACB6",
"tX c #A3C1BF",
"yX c #8AACC5",
"uX c #89B6C6",
"iX c #97B6C8",
"pX c #91B4D2",
"aX c #A9B8CD",
"sX c #819AC2",
"dX c #97C6D5",
"fX c #90C6D0",
"gX c #B2CDD5",
"hX c #92D8EC",
"jX c #B6D8EA",
"kX c #AED4EB",
"lX c #86EBF8",
"zX c #87F9FA",
"xX c #93FDFD",
"cX c #9CFDFF",
"vX c #9AF4FD",
"bX c #8BEAED",
"nX c #B7E6F9",
"mX c #A8F9FD",
"MX c #BCFDFF",
"NX c #B7F8FA",
"BX c #AEE8F2",
"VX c #89EBDE",
"CX c #C8DBEE",
"ZX c #D9EAFB",
"AX c #C3FEFF",
"SX c #CBFCFF",
"DX c #C6F4FE",
"FX c #DBFDFF",
"GX c #D6F6FF",
"HX c #CEE8EF",
"JX c #E3FEFE",
"KX c #E7F7FC",
"LX c #F4FDFE",
"PX c #F8F5FF",
"IX c #EAE9FB",
"UX c #CEDEDC",
/* pixels */
"g.s.s.s.s.s.z.C.F.F.D.C.C.F.F.Q.D.D.F.W.R.R.R.R.R.R.W.!.W.Q.].).Q.C.f.p.p.s.M.A.D.B.B.D.D.z.a.a.s.m.s.p.s.B.D.c.W.C.f.a.a.a.a.a.",
"g.g.s.s.s.s.B.C.C.F.F.F.F.F.C.B.A.A.D.W.R.R.R.R.R.R.C.W.C.Z.`./.E.C.z.a.s.f.B.A.A.A.D.Q.Q.C.c.z.s.s.s.p.f.Q._.Q.D.B.f.a.a.a.a.p.",
"g.f.f.f.s.s.B.C.F.C.B.C.C.B.z.f.B.B.C.C.C.C.R.R.C.W.C.D.C.Z.}.}.E.C.c.c.B.F.F.Q.Q.W.W.D.c.a.0.<.w.r.b.x.G.}.}.F.B.f.a.a.s.f.d.p.",
"f.s.s.s.s.s.B.F.F.B.f.a.s.s.f.f.f.B.B.C.C.C.R.W.C.W.C.F.Z.G.+X+X/.E.c.z.B.F.Q.Q.D.W.D.C.C.c.z.q.n.{.#X X X XL.g.f.s.s.s.s.f.s.p.",
"s.s.s.s.s.s.B.F.C.z.p.0.p.a.s.s.f.f.z.B.B.C.W.W.W.Q.F.Z.G.J..X.X(.E.c.k.c.C.C.D.D.R.C.C.C./.G.n.1X1X1X,X<X.X|.x.s.s.s.s.f.g.s.s.",
"s.s.s.f.f.f.B.F.z.f.a.s.s.s.s.s.s.s.s.s.f.B.C.D.A.D.F.(.|..X1X,XoX`./.Z.C.C.C.C.R.R.C.C.E.).(.K.7XzX7X6X<X X(.z.s.s.s.s.f.f.s.s.",
"s.a.f.B.C.B.B.F.f.f.f.s.s.s.s.s.s.s.s.s.s.f.B.B.M.B.V.|..X,X6X1X@XOX`.).E.Q.R.R.C.C.R.~.].oX@X6XvXmXxX6X@X(.c.k.a.f.s.s.f.s.f.f.",
"p.s.B.F.Q.F.F.F.f.f.f.s.s.s.s.f.s.s.f.f.f.f.M.M.M.M.g.L..X1X6X1X<XoXOX`._.Q.W.C.R.R.R.~.`.}.@X6XMXAXcX4X{.U.I.c.f.f.s.s.f.s.f.k.",
"z.C.F.F.F.Q.F.B.s.s.s.s.s.f.f.f.s.s.g.g.f.f.f.f.M.f.s.G..X,X6X1X|.(./.Z.Z.C.C.C.R.C.R.R.v.v.}.1XvXmX7X1X}.l.R.R.D.B.s.s.s.s.a.k.",
"B.C.F.F.F.F.B.f.s.s.s.s.s.s.s.f.s.s.g.g.s.f.s.f.M.s.p.G..X;X1X,X|./.Z.v.z.C.C.C.W.C.R.C.c.x.(..X4X5X>X<X`.c.R.R.D.A.M.s.s.s.a.a.",
"C.F.F.C.B.B.f.s.s.s.s.s.s.s.s.s.s.s.g.g.s.s.s.s.M.s.p.G. X.X;X{.(.Z.z.a.f.B.C.D.W.D.D.C.c.k.v.L.J.L.G.}.`.Q.Q.A.D.F.V.f.g.f.p.p.",
"C.C.C.B.z.f.s.s.f.f.f.s.s.s.s.s.s.s.g.f.s.s.s.s.f.s.p.Z.}.|.#Xn.v.l.a.a.a.f.B.A.Q.D.D.W.C.c.v.Z.c.C.c._.]._.`.D.F.F.V.B.g.s.p.p.",
"B.C.C.B.f.s.s.s.f.g.f.s.s.s.s.s.s.f.f.s.p.s.s.s.s.s.s.Z.)./.G.b.a.f.a.s.s.f.M.A.A.A.A.D.W.C.Z.C.C.R.R.~.].].`.F.F.F.F.B.f.s.p.p.",
"B.B.C.B.f.s.s.s.s.s.s.s.s.s.s.s.s.f.s.s.p.p.p.s.s.s.a.C.E.c.v.a.a.a.s.s.s.m.M.M.M.M.A.D.Q.W.C.R.R.!.R.!.].].`.Z.C.C.C.B.f.s.s.s.",
"C.C.C.B.f.s.s.f.s.s.s.s.s.s.s.f.s.f.s.s.p.p.p.p.s.f.f.D.Q.C.l.q.a.s.f.f.m.m.m.M.m.M.A.A.D.Q.D.C.C.R.C.R.~.~.[.R.c.C.C.C.f.s.f.M.",
"C.C.D.F.M.s.p.g.g.g.s.f.f.s.j.j.1.1.e.e.1.1.1.1.u.j.j.G.(.x.b.<.w.w.e.j.5.5.d.d.s.f.A.A.D.Q.F.D.B.F.c.C.R.^.[.^.c.R.R.C.z.f.z.B.",
"l.C.Q.D.V.s.d.g.d.d.s.M.4.d.R J p q s s v v J h n g U P K K P L ( m L ) { R I ) 2.<.S.M.S.B.F.Q.Q.F.C.C.W.R.R.R.c.R.C.l.z.a.a.a.",
"l.C.W.A.f.p.d.d.d.s.p.f.4.<.I U +.%.:.%.&.+.&.=.=.=.$.&...6.&.&.] ] &.-.3.3...O.) | d.m.m.s.B.F.F.F.C.C.D.W.R.R.R.R.R.R.~.~.~.Q.",
"l.c.D.A.f.0.p.s.g.f.a.B.f.<.) 6.:.Q ^ $.+.$.$.^ ^ $.$.&.&.T T $.&.&.' ' _ ..+.hXb P <.s.s.s.M.S.F.C.C.C.C.C.C.R.R.C.c.C.!.!.!.R.",
"l.l.D.A.z.a.a.a.s.f.a.z.f.<.( %XT * 6 2 ; ; 6 , = 2 < 2 ; d < , < 2 2 u u 2 # ;.d L <.s.z.s.M.F.A.C.W.C.C.C.C.W.~.R.C.R.R.!.R.R.",
"l.c.D.D.C.k.z.f.a.B.f.f.a.<.L 6.U 2 f u i i 9 k Y u h a i q 0 c l H j g J g - fXd / w.a.l.k.B.D.C.W.W.W.C.C.W.Q._.~.Q.R.R.R.R.R.",
"v.C.D.W.D.c.c.f.f.V.V.M.f.<.P 6.G f u hXNXmXi 8.MXMXa U p 7 nXGXGXDX8.j a h = 7.d ( 0.a.k.k.c.C.C.W.W.W.C.C.W.Q._._.`.).v.l.v.v.",
"x.V.A.D.D.C.B.M.4.4.N.N.4.<.I 8.T 2 2 SXFXBXw nXDXSXu a q SXZXPXLXLXjXk f j < pXj I 4.s.z.k.x.V.D.W.D.D.C.C.C.E.).OX+X+X|.J.K.XX",
"j.x.D.D.W.C.z.s.N.4.N.N.4.2.J 8.Y , uXGXKXS t gXJXGXk u 7.JXKXIXUXPXFXQ H f , 9.h R 5.m.B.z.V.Z.F.D.D.D.C.C.c.c.k.(..X,X:X*X*X4X",
"J.n.z.C.c.r.c.k.a.f.a.z.s.<.b %XB = JXZXLXUX0XgXPXZXl u SXFXKXD D LXHX$.u G 2 8.G I N.M.B.F.C.B.A.D.Q.D.C.C.C.v.n.J.,X>XzXlXcXvX",
"6X1XXX|.|.{.}.T.n.(././.E.e.v %XY 0 kXJXKXHXGXLXIXLXkX2 AXFXKXZ ZXZXSXn h f < hXG R H.A.D.Q.D.D.F.F.Q.D.D.C.C.U.}.#X1X6XcXmXAXAX",
"mXcX5X6X6X6X1X:X;X<X+X+XoXu.q %Xd 1 n fXGXFXDXDXKXGXBXh d MXjXQ KXJXAXd i h ; ;.d _ j.A.Q.D.A.A.F.F.D.D.C.C.R.I.}.XX1X4XcXmXMXDX",
"AXMXvXcXcXxX7X4X>X,X#X#X#X3.: 7.U a a a w l k 8.GXJXj g 9 d =.FXGXFXN q b 9 - dXu ..j.V.Q.C.W.D.D.F.A.C.C.C.R.I.oX+X1X6XzXvXmXmX",
"NXmXmXcXcXxX7X6X:XXX{.T.n.,.$ uXT 2 h h d k a T JXJX2 d 9 %.JXGXJXW q p p b $ :.q ] u.b.E.l.R.C.W.E.C.R.C.R.R.R.U.(..X:X>X4X5X5X",
"VXVXlX5XlX7X4X,XXXn.Y.l.b.,.= pXY f G G k a h T KXKXQ l DXJXZXKXZXkX%.V b a - 7.q ] &XK.{.T.T.Y._.~.^.R.R.R.R.C.E.`.oX@X<X;X,X1X",
"9X9X>X>X4X>X:X X(.c.R.c.f.1.2 pXk j f f H j b U FXZXA SXKXIXPXPXIXPXIXZX=.l # dXx &.lXlX7X7X1X<X'.^.^.R.R.R.D.D.C.C.E.)././.(.'.",
"i.P..X;X,X,X|.`.F.z.!.D.M.1.6 pXE 2 j H a n s i GXKXt FXKXPXPXPXPXPXPXKXsX0 = yXl ^ BXmXmXmXzX1XT.^.I.c.C.C.W.W.C.C.C.R.C.C.c.R.",
"f.G.|. X|./.F.Q.C.R.!.c.C.e.= pX=.l 6 2 < ; - 7 - 7 7 ; x Z + 5 > $ t r ; ; l dXl Q nXSXAXAXbX6XT.^.R.C.C.Z.C.C.R.R.!.R.C.C.C.Z.",
"A.F.(.|./.R.W.W.C.R.R.R.k.1.9 yXnX=.0 x B x B x x N w x B z B B t C x N N N kXnXz W nXSXAXmXMX7XT.R.C.C.C.Z.C.C.C.R.R.R.C.c.B.B.",
"A.D.T.T.U.R.W.W.C.C.R.[.k.>.1 =.uXeXeXfXuX;.yXwXwXiXiXwXwXrXrXwXiXwXdXiXyXwXyXyX= Y BXmXMXcXbX4Xn.R.C.C.R.R.C.C.B.C.C.B.z.f.z.z.",
"D.D.U.Y.I.R.W.W.z.~.!.C.a.J.# = % @ 8 t C A r 4 4 + % > % 4 & % 4 c A Z r 3 5 3 = B %XbXlXcXbX7XG.D.C.C.W.W.D.C.f.f.f.f.s.s.f.f.",
"D.W.c.c.I.R.W.W.).B.C.!.k.>.< 7.CXgXgXfXfXdXiXaXaXaXrXrXiXwXtXrXiXaXdXiXaXyXwXiXdXN [ 3X-X7X5X4XG.W.D.W.W.W.D.B.s.s.s.d.s.s.s.f.",
"W.W.C.c.R.R.W.W.B.D.!.C.z.P.< 1 iXZXjX*.x - 0 z z 4 Z 4 y 4 y 8 z > z > r r c 3 uXnX' [ 3X-X5X>XG.W.D.W.W.W.A.B.s.s.d.d.s.s.s.s.",
"W.D.C.C.R.W.W.D.B.Q.!.!.c.j.I 9 z aXKXjXW = B ;.= 3 *.r = #.W @ A *.# c wX> # ;.B wXGX$.Y lX5X1XE.!.W.D.D.D.A.M.s.s.s.s.d.s.d.p.",
"D.D.C.C.C.W.W.D.D.Q.D.!.c.G.u.J = z pXGXCX~ 3 Q ;.r A wXz B 0 # - c # # y eXt t *.! #.DX=.' $X:XG.W.D.D.F.F.A.M.f.f.f.f.g.s.d.d.",
"s.B.S.F.F.C.C.A.A.D.W.R.R.Z.j.3.L 9 0 yXKXgX! > A eXr Z qXW Q uX;.:.eX;.wXA *.t B #.#.*.nX-._ &Xn.C.W.F.F.<.F.p.f.f.f.f.f.s.s.d.",
"s.f.S.S.V.B.B.B.A.D.W.R.R.C.x.1.X.b 1 z iXZXCXS % y & % Z r z W W +.A A B $ A $ @ y 8 > :.hX6. .P.b.z.z.Z.z.s.f.f.f.M.M.f.f.f.s.",
"s.s.m.M.f.f.f.f.B.A.W.W.R.R.B.a.t.X.g 1 > aXZXgXF S S ! ~ ~ Q @.Q A @.@.! @.! @.@.! +.+.%.BXBX..o.XXn.b.E.0.C.f.f.f.m.m.m.f.f.f.",
"p.s.s.m.s.s.a.a.B.A.D.R.R.R.D.C.r.y.o.s # > rXJXHXgXUXUXgXCXjXjXZXkX#.*.0X0X0X0XaXHXjXBXBXnXkXNX_ } K.y.l.l.q.a.f.s.d.d.g.f.f.f.",
"a.s.m.m.s.a.a.a.B.A.D.R.I.R.D.D.l.l.>.,.i : 7 eXnXNXNXNXNXDXSXDXZXgX~ ~ *.! #.S aXKXHXHXGXZXCXJXMXO.3.K.t.q.k.0.f.s.d.s.s.f.f.f.",
"a.a.M.m.s.s.a.a.M.A.B.C.c.R.D.D.Q.C.Z.<.,.b 9 s hXvXbXbXvXhXhXkXnXkXjXnXDXnXnXCXCXjXCXCXgXCXZXgXhXlXs o.XXt.q.).B.f.s.s.s.f.f.f.",
"q.a.M.M.f.a.a.a.f.M.f.z.v.R.D.A.A.S.A.B.x.e.{ I P ) / / / m b n s M s m m p U n q w r r y r t x l d m 3.u.<X+X'.E.C.M.f.M.M.M.M.",
"w.a.M.M.f.s.a.z.s.s.s.a.v.Z.D.A.G.S._.C.Q.V.j.1.,.2.>.o.o.o...O.O.` O.O.O.O.` ] ] ' %.%.=.+.:.:.-.-.*X&X;X.X XoX_.W.B.z.M.B.A.S.",
"w.w.s.s.s.s.s.a.s.a.q.q.l.Z.C.C.Q.A.B.C.C.x.j.e.>.>.>.>.,.,.,.3.,.,.3.i.i.$X*X8X3X3XlXxXzX3X3X8X>X=X{.T.Y.`.oX}.~.^.R.C.C.A.D.D.",
"w.0.0.s.M.M.M.s.s.p.a.a.a.z.C.C.c.E.).G.b.e.1.2.X.| | } { { { ( ( ( ( ( P P _ ] _ ] O.-.$X-X-X4Xu.J.v.l.I.R.'.}._.^.I.c.C.A.A.A.",
"f.a.s.f.F.F.V.f.s.p.s.g.s.M.S.V.g.j.<.X.{ P K b b g g g g g g g i i p s g b M T [ [ V M v v v s } >.q.r.k.k.c.'.oX`.c.k.f.s.m.m.",
"a.a.f.Z.`.}.'.G.g.s.s.m.s.M.S.d.e.X.) P K b s s a u 9 9 9 9 1 ; $ $ - : - : : ; 8 w w w q q 9 9 b } X.>.w.a.a.Z..X X/.k.0.<.4.d.",
"p.a.x.|.<X,X.XL.G.s.f.m.s.N.N.2.{ K b s i 9 ; ; - # # # @ O O . . . o o O .     o $ 8 8 7 7 9 1 a K P } >.w.0.x.XX X`.I.a.0.p.g.",
"a.b.J.,X6X6X4X:XL.g.f.s.p.V.j.| K U m i ; - # O O o o o o @ @ o X X . . O O . .   o @ @ @ - 1 9 g b J I 2.<.p.x.n.|.OX_.l.w.0.0.",
"G.J.=X4XxXxXzX4XXXn.C.k.0.x.e.) b m m q ; ; ; - @ @ @ @ . . . . . . .   . o o o # # # # - 9 d j J J J { 2.w.g.g.g.(.OXOXI.r.q.q.",
".X;X>X5XmXmXxX4X:X|._.l.q.v.t.( m K K b s i q 9 - : $ $ @ @ @ @ & & @ o @ - 8 7 7 7 q p b U U L K K { 2.<.h.g.g.z.E.oXoX]./.(.|.",
".X;X>X3XzXxXzX4X1X+X/.R.c.U.T.J.X.} ) P K K L U U V V N w e e e e e 8 7 9 d n b U L L / ( { } } } X.>.<.a.a.s.B.C.E.}.+X+X+X+X X",
"L..X:X6X7X7X6X:XXX|./.Z.E.).'.'. XXXP.,.X.} ) ) _ [ [ [ C C C C V V M m b m K L P ( ) } X.2.>.>.>.<.w.q.a.a.f.Q.R.!.(.|..X.X X+X",
"p.g.J.|.@X@X#Xn.n.n.g.M.A.F.Q.~.E.'.`.(.n.n.P.&X&X$X%X7.;.;.;.:.] `  . .} | X.>.e.e.b.b.x.x.z.a.w.w.k.k.a.s.B.C.c.!.).|.;X;X|./.",
"4.s.z.E.'.'.v.a.f.s.4.4.s.M.D.W.k.l.R.E./.(. X;X6X7XxXmXAXSXGXMXzX1X:XK.P.1.w.g.b.v.v.c.C.C.B.f.a.w.k.c.s.f.C.C.c.^.E.}..XXXb.l.",
"s.s.z.c.C.C.B.f.f.M.m.m.M.M.A.D.R.R.R.C.C.k.b.b..X>X7XcXMXSXGXMX6XXXP.j.h.0.p.B.c.R.^.R.R.Q.!.D.Z.s.f.f.4.f.!.!.R.R.c.'.|.x.q.c.",
"s.s.s.s.s.s.s.s.s.f.B.F.A.A.A.A.D.C.C.C.C.C.C.b.|.;X6XzXmXMXDXmX6XXXj.0.0.p.s.z.C.R.R.C.C.D.D.A.Q.F.S.S.A.A.!.!.R.c.(.}.G.a.a.c.",
"a.a.s.d.d.5.m.m.p.f.C.R.W.F.F.A.F.D.D.W.W.W.R.c.q.J.=X4XlXvXmXmX>XL.h.0.p.s.f.f.z.C.C.C.C.Q.Q.Q.W.W.F.F.).W.C.C.k.v..X<XG.p.s.s.",
"q.a.d.d.5.5.5.s.s.k.R.^.R.C.F.F.S.F.D.Q.!.W.C.c.r.n.K.2X8XVXbXxX=Xn.h.<.p.s.f.s.B.C.C.C.C.C.B.B.W.W.A.A.D.D.C.W.k.Z.;X.X<.<.s.4."
};
