/* XPM */
static char *_f29d1c9efab4f8cb920f73a7e466132IZURjV8nhNvVa6oV[] = {
/* columns rows colors chars-per-pixel */
"64 64 256 2 ",
"   c #020303",
".  c #050707",
"X  c #130100",
"o  c #180402",
"O  c #031506",
"+  c #010917",
"@  c #021718",
"#  c #141010",
"$  c #230000",
"%  c #290203",
"&  c #390501",
"*  c #30120F",
"=  c #032715",
"-  c #010C26",
";  c #021825",
":  c #061B31",
">  c #012529",
",  c #012938",
"<  c #00383A",
"1  c #13372D",
"2  c #2F2D2A",
"3  c #470400",
"4  c #530F04",
"5  c #733813",
"6  c #6F3B28",
"7  c #621F0A",
"8  c #004C3C",
"9  c #39453C",
"0  c #724712",
"q  c #544A33",
"w  c #6D482B",
"e  c #5F4009",
"r  c #003846",
"t  c #003047",
"y  c #2C3C42",
"u  c #014957",
"i  c #035251",
"p  c #3B5655",
"a  c #09645A",
"s  c #025766",
"d  c #0B576D",
"f  c #026B77",
"g  c #01767A",
"h  c #0B6D6C",
"j  c #296972",
"k  c #33605A",
"l  c #4C504C",
"z  c #676663",
"x  c #5F3B47",
"c  c #8A3612",
"v  c #91341A",
"b  c #8A4813",
"n  c #8C4D2D",
"m  c #B76D34",
"M  c #B15726",
"N  c #D75711",
"B  c #EA5A06",
"V  c #FE5401",
"C  c #FD5B01",
"Z  c #F85A08",
"A  c #FA5A14",
"S  c #EF540F",
"D  c #D56C14",
"F  c #EA6608",
"G  c #FD6202",
"H  c #F86409",
"J  c #E66417",
"K  c #FA6617",
"L  c #EF7715",
"P  c #D05929",
"I  c #C76728",
"U  c #C97838",
"Y  c #D57030",
"T  c #E86625",
"R  c #ED702C",
"E  c #E65B25",
"W  c #9B695A",
"Q  c #D07049",
"!  c #D46F58",
"~  c #008277",
"^  c #77826B",
"/  c #B68A32",
"(  c #D08834",
")  c #F2882B",
"_  c #B78D53",
"`  c #AF936E",
"'  c #A39C6B",
"]  c #D58E53",
"[  c #F0AA6E",
"{  c #DF9A63",
"}  c #027788",
"|  c #0B748C",
" . c #187B98",
".. c #927F83",
"X. c #048898",
"o. c #098E91",
"O. c #298E97",
"+. c #0FA49A",
"@. c #0794AB",
"#. c #2C9AAA",
"$. c #06A6B7",
"%. c #0FAAB0",
"&. c #26A7B7",
"*. c #2EACB1",
"=. c #28A198",
"-. c #71AA99",
";. c #51B0B2",
":. c #70B1AA",
">. c #539A9B",
",. c #18C8BD",
"<. c #62C9B7",
"1. c #06ABC5",
"2. c #05BACB",
"3. c #15B9C6",
"4. c #03B9D8",
"5. c #16BAD6",
"6. c #10A9D2",
"7. c #2BB8CF",
"8. c #05BBE9",
"9. c #0AB8F1",
"0. c #2DB4DC",
"q. c #53B9CC",
"w. c #6CB9CB",
"e. c #02C4D5",
"r. c #04C8DA",
"t. c #17C6D8",
"y. c #03D6DA",
"u. c #17D6D8",
"i. c #0FCAC9",
"p. c #28CAD4",
"a. c #29D7D8",
"s. c #3AD7D7",
"d. c #30CBD1",
"f. c #35E4D8",
"g. c #01C4E4",
"h. c #01CCE4",
"j. c #02C5EB",
"k. c #01CBEB",
"l. c #0BC6E7",
"z. c #16CAE9",
"x. c #01D3E4",
"c. c #01D3EB",
"v. c #01DBEC",
"b. c #08D9E7",
"n. c #18D7E8",
"m. c #02C5F2",
"M. c #01CBF3",
"N. c #01CBFD",
"B. c #08C6F6",
"V. c #02D3F4",
"C. c #01DCF4",
"Z. c #02D4FC",
"A. c #01DCFD",
"S. c #0BDCFD",
"D. c #0BD5F8",
"F. c #17D9FA",
"G. c #15CBF6",
"H. c #24C9E7",
"J. c #27D8E8",
"K. c #3AD7E8",
"L. c #29D9F7",
"P. c #35CFF2",
"I. c #03E3EA",
"U. c #02E2F4",
"Y. c #01E4FD",
"T. c #09E6FB",
"R. c #17E4FB",
"E. c #11EBEF",
"W. c #3AE6EA",
"Q. c #28E6FA",
"!. c #37E9FA",
"~. c #2EECF0",
"^. c #10E4D9",
"/. c #50D1D2",
"(. c #69DBD7",
"). c #7AD8D8",
"_. c #6DCDCE",
"`. c #54E7D8",
"'. c #71E5D7",
"]. c #46D9E5",
"[. c #59DBE6",
"{. c #4CDAF8",
"}. c #67DBE6",
"|. c #74DBE7",
" X c #6CD4F3",
".X c #48E8E9",
"XX c #57E6E7",
"oX c #49E8FC",
"OX c #5AE6F7",
"+X c #47F4FD",
"@X c #59F4FD",
"#X c #53F1EC",
"$X c #69E6E7",
"%X c #75E6E8",
"&X c #67E9F8",
"*X c #76E9F7",
"=X c #77F7FC",
"-X c #69F5F3",
";X c #8BB0A9",
":X c #B3B5AD",
">X c #9FA095",
",X c #F2B590",
"<X c #CBB5AD",
"1X c #DEB998",
"2X c #B3CAB8",
"3X c #A0CCAF",
"4X c #FBD094",
"5X c #D2D2B2",
"6X c #FDDAAA",
"7X c #FCDAB9",
"8X c #EED2B3",
"9X c #FCE6B9",
"0X c #FFEFB7",
"qX c #E8D995",
"wX c #93BDCB",
"eX c #90D6D3",
"rX c #ADD7D4",
"tX c #8FE6D9",
"yX c #B3E6D6",
"uX c #92DBE9",
"iX c #A7DBE7",
"pX c #86E8E7",
"aX c #88F9FC",
"sX c #96F8FB",
"dX c #92EDF0",
"fX c #A6E9E6",
"gX c #BBF6E9",
"hX c #A5FAFC",
"jX c #B6FBF9",
"kX c #B0EEEE",
"lX c #D0D3CB",
"zX c #F3DAD0",
"xX c #CCE9CF",
"cX c #FCE7C8",
"vX c #FEF4CA",
"bX c #FCE9D5",
"nX c #FDF7DA",
"mX c #EBEDD4",
"MX c #CCFFFE",
"NX c #C5FBFB",
"BX c #DBFEFD",
"VX c #D6FBF9",
"CX c #D0F1EC",
"ZX c #F8E9E8",
"AX c #E9F8E9",
"SX c #FBF8E8",
"DX c #EBECF5",
"FX c #FBEDF9",
"GX c #E8FCFA",
"HX c #FDFCF3",
"JX c #FDF4FE",
"KX c #F4FEFD",
"LX c #FDFDFD",
"PX c #F5F6F6",
"IX c #E9E9E6",
"UX c #F4DFE4",
/* pixels */
"y.r.r.8.B.N.Z.A.C.T.v.v.T.S.V.D.R.S.N.A.Z.Y.A.Y.D.S.C.U.U.T.Q.!.F.h.b.e.8.N.V.C.c.c.A.A.Y.x.l.5.G.8.D.r.r.E.J.!.T.Y.V.M.m.j.l.l.",
"y.r.g.j.B.M.Z.A.Y.U.v.v.T.S.Z.S.h.C.S.T.A.A.A.A.G.n.n.J.n.J.K.{.K.p.3.t.P.4.n.R.Q.c.T.A.T.x.4.G.G.B.c.r.y.~.~.Q.T.C.V.M.m.B.j.j.",
"h.h.k.k.m.j.M.C.U.U.v.v.S.V.V.C.v.I.x.U.Y.v.I.u.s./.q.;.O.h u , < r | #.| /././.u.k.F.h.I.x.B.9.4.c.h.n.L.!.!.n.n.k.k.j.j.j.h.h.",
"j.j.M.k.j.g.k.C.U.v.v.C.D.k.k.c.e.b.y.r.n.t.d.+.< > @ @ # # . .     ; ; , > = < #.{.0.p.J.e.j.G.F.!.!.oXoXoX!.n.l.l.h.g.g.g.h.h.",
"m.m.M.k.h.h.c.U.v.v.V.V.k.g.k.V.V.k.5.&. .< > . O .   o % & & & & * 2 KX;X> O . + : r ;./.].Q.z.@X@X=X-X@X+XR.b.c.h.h.h.h.h.x.c.",
"m.m.M.M.k.x.c.U.C.k.k.k.g.h.c.h.8.6. .r - # o X X % 4 v I Q Y Y ! ! 8XbXKXSX7 $ $ . # > ; ;.OXOXaXsXsX*XOX+XT.x.c.h.h.h.h.h.k.k.",
"m.m.M.V.v.v.v.C.V.k.k.k.r.t.5.&.#.t + . X % 3 v I P N S A A A S S R { bXIXnX( Y 5 4 & o . O = gXkXMXjX&XL.R.T.C.x.h.h.r.r.h.j.l.",
"m.M.V.S.U.U.C.V.D.M.M.k.r.t.#.j @ . X X 3 Q Y R J S V V Z Z C C G H Y 6XSXvXD B Q ! W & X . X   z yXjXaX~.v.T.h.c.k.l.h.h.h.l.9.",
"B.V.C.C.v.C.A.D.G.8.S.h.$.#., . X $ w _ I J Z Z H H B H Z V C G C Z R 6XnXcXT K [ bXbX<X>XX o $ . . jX*X~.I.T.c.V.j.8.l.k.j.9.9.",
"c.c.U.U.v.C.Z.N.9.B.4.5.&.< + X q 5X8X4XI R K C C C Z H H C C G C F D 6XSXSXR S [ 7XbXbXUX>XW % X # . ).d.r.I.T.V.l.l.l.B.m.B.9.",
"v.c.U.U.C.V.M.m.B.8.5.&.> +   z AXSXAXnX6XU N A C C C C V V V Z B F / 9XFXUXE S T [ vXSXFXbX{ m & $   ; (.oXE.x.C.V.M.M.M.M.M.M.",
"v.x.C.T.V.k.k.j.4.z.@.t + . >XHXKXKXPXnXcX7XY E V V G G C C V A Z D m cXLXzXT Z H J ] cXvXvX4XI Q 4 o   ; _.W.b.C.C.C.V.M.M.M.M.",
"v.x.C.S.D.j.l.l.2.&.; - . >XAXPXJXZXJXHXSXvX] T K C C V V V V Z S T { cXbX,XN C C G B N L [ F T ! W 4 % . @ [.~.b.U.Y.C.M.k.k.k.",
"v.v.C.S.M.l.l.t.&.r ;   W LXHXPXLXJXJXZXHXbX6XU J B H C G K J T E Y 7XbXcX] F G G G V K H F K T ,X,X,X* X   > [.n.U.Y.A.M.k.k.k.",
"V.V.A.A.V.h.t.&.> +   2 ZXHXIXKXAXKXDXLXDXHXnX9XU J R J T Y M M v v nXIXbXQ A H G B Z Z B B R ,X6XvX9X8Xq l . t p.b.Y.A.M.k.l.z.",
"D.V.V.Z.V.k.3.O.+ . * SXHXHXLXIXGXGXKXFXLXPXSXnX6X{ I 7 3 3 $ * & $ KXIX<X3 c T J J K K N Y ,X6X9X8X0XvXzXbX>X+ ;.p.b.C.V.k.l.t.",
"h.b.F.D.Z.8.*.> . % lXPXLXJXKXPXAXHXFXFXJXLXAXAXSX6 % $ $ X : : + DXJXLX. X o & 3 Q E R Q ,XcXbXvXnX9XcXcXZX:X. = /.u.U.r.c.y.u.",
"b.c.D.N.N.H.u   % x ZXHXJXPXKXAXPXIXLXFXJXKXCX2Xy +   . . r  .O.>.CXKXBX< @ + + $ 3 c Y ,X8XnXnXvX8X7XbXbXzX:X  . 8 a.I.T.Y.E.b.",
"C.v.Y.c.l.%.@ . & ,XcXnXSXHXGXKXLXLXPXLXKXKX2Xl + ; , ;./.i.t.7.jXBXhX*.%.d.O.< @ # o & 7XcXvX9XcXbXSXmXIXHXIX2 @ @ 7.Q.A.Y.T.I.",
"c.C.Y.c.a.i O o n ] 4X9XnXmXKXDXKXDXDXPXGXlX9   ; ;.|.&Xa.b.b.$.jXMXaX1.y.y.3.&.O.+     ' bX9X9XbXmXmXxXHXHXLX<X  @ f 1.R.Y.U.U.",
"Z.V.A.n.*.= O $ Q T Y 4XvXnXZXLXKXGXLXHXlX2 . ; _.aX=X@XoXP.z.s.MXNX{.l.h.e.r.i.3./.> O z cX9X9XcXbXmXSXHXZXSXSX*   :  XL.Y.I.U.",
"A.M.S.L.a O # 5 E K K I 0XvXbXHXAXCXHXUX2 @ , _.pX%XaX&X*X{.].aXBXBX0.9.k.C.v.x.r.3.>.;XlXbXcXcXnXSXSXSXmXbXSXSX<XX + w.d.n.I.y.",
"Z.Z.F.K.@ X & Q S A A S ] 4XbXbXHXPXUXx + : &.s.pXdXjXhXsXaXuXBXJXGX0.8.S.A.r.v.M.3.kXUXSXcXnXIXSXIXSXSXSXzXzX8X<X* % - ).].u.y.",
"z.L.z./.+ o 4 Y K V V A E Y 4X9XmXmXW . : q.W.a.*XhXNXjXsXdXiXBXJXVXP.N.M.k.c.c.r.d.VXbXcXzXX :XSXSX>X6 w w w w w 6 6 x p _.`..X",
"K.K.s.O.+ $ M J F C Z A S N Y [ 6X` X . o.t.Q.n.OXaXsXhXaXaXdXgXGXMXz.Z.Z.M.c.r.r.s.CXbXcXbXzX* cXW n c 5 5 c M m m I Q n q yXfX",
"aXaX'.i . $ E C G G C A A H F Y ! & . O p.v.R.F.oX@X&X=X-X-X'.gXAXMXK.R.V.k.g.g.y.s.CXbXcXcXzXo ` w c v M m I Y m I Y I m 0 ^ xX",
"hXfXfX@   % T V V C C C C C C B Q % @ i i.v.c.T.F.F.L.n.J.W.(.MXAXVX%XoXx.h.8.G.h.s.CXcXcXcXmXX w 5 v v 5 b M U m m U m m 0 q IX",
"NXgXCXO   $ N V G G C V V C C H 4 % @ =.,.v.v.Y.m.N.S.k.2.d._.gXAXAXfX}.p.e.8.L.z.s.yXmXvXvXmXX 6 n 5 6 5 b c c c c b b b 5 q lX",
"jXgXCX@ . 4 P K ) L B Z Z Z C J % + > *.i.e.x.h.N.j.M.g.6.q.w.eXVXGXVXeX(./.P.P.L.d.<.xXxXmX5X* 5 0 5 w 0 b c 5 c 5 0 0 5 0 q :X",
"%XpXiX+   w m P R D J J J J J U X - t %.3.e.y.x.V.g.4.$.u , t r eXVXGXNXjXsXaX=X@XOX'.gXxXAXnX` w 5 w w 5 5 5 w n 5 0 e 5 w q wX",
"W.[.wX- # :X9X9X( ( Y Y U U U _ 1 u f 0.t.r.$.$.1.X.u s a h d d a eXuXuXtXtXpX%X$X$X$X).tXyXbX7XW w q q w w w q q q w w q q j eX",
"E.J.w., = 2XyXxX5X1X` ' ' ' ` ' i f | 7.s.s.#X&X*X|.h i a a s s i dXdXdXeXtX'.(.'.(.$X(.sXkXmXzX5X>XxXlX<X<X:X:X>X2X5XlX;X>./. X",
"c.J.w.> -.fX'.'.wXeX_.<.;.-.;X;Xd f ;.pXfXfXgXfXjXhXu s r , , u s 7.=X*X*X}.$X`.(.'.'.'.dXeXyXrXrXfXfXeXyXyX2XyXyXrXrXtX-X,.z.F.",
"A.n.).> kXdX$X$X(.`.a.a.`.(.).).|.(.).tXeXyXyXfX_.#.} o.| O. .O.X.&.[.[.}.$X$XXX`.%X%X).).dXeXdXtX<.eXyXrXyXxXxXxXyXgXdXf.i.M.Z.",
"F.t.'.8 ).pXpX|.(./.a.a.s.f.f.s.s.[.}.%X%X$Xs.p.~.r.2.2.5.3.@.+.+.+.%X|.`.`.].XX*X%X|.*XaX).dXtXa k >X8XlXlX5X5X5XlXeXw.o.$.l.B.",
"D.J./.8 pXtX).pX%X[.OX.Xf.f.f.W.OX&X&XOX@X!.n.b.v.r.2.1.3.$.X.o.~ ~ pXpX`..X].OX{.OX&X].].$X).i 1 z _ U _ ` ' ` ] ` y u s 3.z.8.",
"Z.l./.).eXfXeXdX_.w.(.XX`.`.[.%X*X/.&.@.n.r.h.b.z.@.%.@.f ~ h a f f |.}.[..XW.W.L.g.D.R.y.W.s : * ! T B D m / / D Y X + u 1.t.e.",
"A.R.d.sXkXkXuXeXwX-.:.<.<./.;.;.;.o.f } r.k.D.F.5.@.} } h g g g | | *XXX.X.X.XK.H.!.T.I.I.u.r : 4 P A V B D 4X6X) R % + } $.e.r.",
"S.x.^.o.> @ CXVXxX;X;X;X-.:.;.;.;.=.o.@.e.D.G.L.!.P.X.X.X.g } } } } .Xf.`.`.$X%XdX=XJ.E.W.h 8 1 n Y K K N ] vXnX[ b o - &.z.z.r.",
"Z.T.y.a.< 1 yXyXyX-.-.-.-.:.;.<./.`.s.~.l.S.k.F.Q.$.$.$.$.$.@.@.@.X.u.i.`.`.'.).pX}.J.u.,.g a 1 _ ( R J ) 4XnXnXQ 3 o - 0.l.4.r.",
"N.N.V.n.u u s %X%X$X_.eX(.$X}.$X`.s.J.n.c.C.Y.I.^.i.+.X.@.@.$.$.l.t.K./.`.`.(./.s.J.u.i.@.g j -.' ] ( ( m cXcXcXW % . - 0.j.e.v.",
"9.N.R.H.O.uXdX*X].XX%X(.`.[. X[.XXs.p.J.Q.R.I.y.u.i.+.g } $.4.l.l.Q.OX&XXX#XXX#Xb.b.r.2.$.&.;.eX:X_ m ( ] 7X6X[ W # ; j 0.j.c.e.",
"c.c.e.7.uXCXeXdX$X$X'.(.(.$X*X}.(.$X$X[.7.X.} o.i.,.i.u.n.D.D.F.@X@X].OX.XW.R.c.D.j.4.1.$.t.}.dXyX5X{ ] I D R I $   = =.5.4.h.x.",
"y.e.e.p.fXrXtXpX(._._.tXpXpX|._./.(.$X*X*Xq.} f g %.u.u.b.S.Z.j.].d.OXOX].W.e.R.l.6.8.8.J.].aXhXeX2X8X[ ( T N P o O 8 %.z.B.g.e.",
"e.e.y.i.pXtX%X/.pX)._.-.-.:.w._.*X*X[.OX=X&X&.| X.} X.2.n.h.k.R..X$X(./.s.d.t.@. .@.K.@XaXsXNXCXMXgXPXcX[ m ! 3 X - &.t.8.8.k.b.",
"e.b.e.r.aX'./.o.j >.3X-.;X:.eX).).%X}./.[. X X|.| | } } } X.1.3.`.`.%XaXXX} g f | q.=XsXhXNXGXDXBXGXCXSXqX_ W % + t 7.4.N.N.g.r.",
"g.j.9.!.*XsXsXi d p ^ >X:X3XrXrXrXfXfXfXdXhXsXdXdX;.d u s f f g g o.$X$X&X*XO.g q.pXjXgXgXBXKXJXJXJXPXSX7X1Xo X ; >.K.h.A.m.8.G.",
"m.D.8.oXdXdXdXd , + # ' 2XAXCXBXGXVXVXVXVXNXNXNXNXNXrXz 9 2 9 p p k j ;XeXeXeX).tXfXtXgXCXGXAXZXJXFXZXzXcXw   + d $X5.S.M.Z.R.g.",
"N.m.k.H.jXNX X0.: +   l 5XmXLXGXKXKXGXAXHXPXVXGXGXSX6X[ U I Y P P M m _ 1X5XyXtXtXdX'.tXNXGXAXHXHXSXZXzX<X  @ > K.b.F.F.h.x.C.U.",
"N.j.2.XXMXMXP.5.#.@ + . <XSXPXJXDXLXKXAXSXHXKXDXKXSX4X) F Z A V A A J Y ] { 5XyXyXeXtXtXgXAXAXSXSXZXIXlX2   @ $X~.T.D.D.x.x.I.v.",
"M.r.%.sXGXBXt.e.3.*.@ @ X zXJXFXLXGXGXKXPXPXLXKXGXnX[ J F H Z H F L ( ( / _ ' 5X5XCXCXCXGXDXHXZXbXbXlXl . + *.W.!.!.F.x.x.v.c.c.",
"j.5.*.jXAXBXp.b.u.p.} @   $ UXFXDXKXLXLXPXZXJXJXKXvXY B H G B H L ) ( ( ( ( / _ _ 8XHXKXLXLXFXZXzXzXz @ + >.a.y.+X+XR.x.c.c.k.c.",
"5.0./.jXAXVX[.L.F.h.1.f @ O O 2XZXFXZXZXHXHXFXJXHXvXN K H G C G L L L L L F F J N ! vXmXAXLXZXFXlXz   @ | 7.4.n.Q.!.Q.c.V.V.k.D.",
"H.K.*XjXGXBXdX{.Q.g.D.5.h = = O :XZXLXSXHXHXFXLXnXvXJ K C C G C H K F F C V V Z A N [ vXHXPXLX:Xp + @ j 7.4.g.k.b.~.!.Q.C.k.g.l.",
"L.K.*XdXBXBXjX*X].L.S.j.i.=.@ . # >XLXKXAXSXHXSXmX4XT Z V V G C S Z G G V V C A A J Q ,XbX<X:Xy ; ; ;.d.2.l.M.A.v.R.oXoXF.h.t.t.",
"+X{.&XdXMXGXMXkX%XoXF.N.k.J._.> + . l lXKXAXAXHXmX{ J V V C G H J J F G C C H K T Y Q 5 W z ; @ r &.i.e.l.j.M.A.C.D.oXOX!.J.L.~.",
"OXOX&XaXgXGXGXBXfX%X{.P.L.F.!.].>.- - + z LXDXKXzX_ T K V K F D ( U U Y D Y Y Q Q 4 % X O @ > o.7.5.g.g.j.k.V.A.C.T.!.{.OX@X~.~.",
"{.{.oX&XdXNXVXBXNXjX|. X0.L.Q.K._.iXd - + . p @ o & v P R P [ 4X6X6X0X6X0X4X7 & $ o O O = g *.3.r.g.M.M.j.j.k.A.V.T.!.{.oX+X~.~.",
"z.n.J.W.-XaXhXjXNXGXGXGX).%X}.%X}.$XXX/.h ; : - + X $ w bXSXnXcXvXSXIXAXAXLXJXX ; > , o.a.u.t.2.h.M.N.N.9.8.c.Y.A.R.Q.!.oX+XE.E.",
"4.h.b.J.W..XOX*XNXMXBXBXNXjXNXjXdX'.`./._.iXrXz ;XFXFXFXJXKXDXLXHXlXwXiXjXNXjX- s /.p.r.U.U.b.h.V.V.N.m.9.8.v.Y.T.S.L.!.!.~.I.y.",
"8.l.b.b.n.H.H.H.5.d.-XpXjXgXGXGXVXBXMXGXKXDXKXDXGXKXFXLXKXVXp + ; + t r @.6.0.P.t.u.n.F.D.S.F.D.c.c.M.m.B.G.C.U.C.c.!.+XQ.y.e.c.",
"B.j.h.h.j.j.8.8.G.4.i.,.$XhXMXBXMXMXMXMXMXBXGXBXMXjXVXCXkXMXjXNXiXuXq.7.4.4.F.2.x.y.F.F.T.T.M.S.v.c.V.A.F.S.A.C.v.y.!.+XR.h.g.D.",
"m.j.j.g.j.k.j.j.8.8.C.x.l.J.H.K.K.H.G.Q.J.K.OX7.a.d.`.'.=XaXjXkX%XXXd.2.e.r.g.F.C.U.b.x.T.U.k.R.I.v.I.Y.Y.Y.Y.Y.E.u.!.+XF.B.9.B.",
"m.m.B.B.k.k.g.g.9.8.Y.C.A.S.A.A.D.S.A.A.Y.v.l.L.e.^.f.f.#X&XhXdXOXW.i.2.r.x.g.j.M.c.I.I.y.U.T.M.U.I.I.I.A.A.A.Y.y.^.+X!.8.8.9.9."
};
