/* XPM */
static char *_8d07e8cc919450396f0ea34eb95c8b1n5I6VrtP4NgRBoKa[] = {
/* columns rows colors chars-per-pixel */
"64 64 256 2 ",
"   c #020302",
".  c #0B0201",
"X  c #000B03",
"o  c #00040C",
"O  c #000A0B",
"+  c #090809",
"@  c #140201",
"#  c #1B0100",
"$  c #170807",
"%  c #031307",
"&  c #000C14",
"*  c #040817",
"=  c #00131C",
"-  c #021817",
";  c #161015",
":  c #240100",
">  c #2B0101",
",  c #260A06",
"<  c #370402",
"1  c #281A09",
"2  c #052317",
"3  c #040E25",
"4  c #001827",
"5  c #001B35",
"6  c #012628",
"7  c #002736",
"8  c #003638",
"9  c #11332D",
"0  c #2C2D31",
"q  c #271E1F",
"w  c #460600",
"e  c #570C00",
"r  c #4F250C",
"t  c #662A0D",
"y  c #622715",
"u  c #344330",
"i  c #605134",
"p  c #002A46",
"a  c #003848",
"s  c #003454",
"d  c #162E4A",
"f  c #4A3F50",
"g  c #03484E",
"h  c #045B75",
"j  c #0B6B72",
"k  c #305E61",
"l  c #4D5354",
"z  c #596D74",
"x  c #69666D",
"c  c #8C380C",
"v  c #952F11",
"b  c #8D4B35",
"n  c #B0522E",
"m  c #BC7033",
"M  c #A54E17",
"N  c #D35610",
"B  c #FF4C01",
"V  c #F44D00",
"C  c #EA5A04",
"Z  c #FE5401",
"A  c #F45C02",
"S  c #FE5B02",
"D  c #FE550B",
"F  c #FE5B0B",
"G  c #F45605",
"H  c #E85E17",
"J  c #F85910",
"K  c #DA6717",
"L  c #D56C0F",
"P  c #EA6507",
"I  c #FE6202",
"U  c #F76506",
"Y  c #E86819",
"T  c #FA6515",
"R  c #EE7314",
"E  c #D8592A",
"W  c #ED5D27",
"Q  c #DA6A25",
"!  c #D77937",
"~  c #D0732E",
"^  c #E76725",
"/  c #E67626",
"(  c #F26F2C",
")  c #B7714E",
"_  c #B47869",
"`  c #946255",
"'  c #C67946",
"]  c #D1734B",
"[  c #E87246",
"{  c #E58839",
"}  c #AA8A62",
"|  c #D0864D",
" . c #EA8F52",
".. c #F7A652",
"X. c #D3906A",
"o. c #F4B171",
"O. c #E3A169",
"+. c #FFC278",
"@. c #0F768C",
"#. c #2E7890",
"$. c #8A7A85",
"%. c #118992",
"&. c #2C8E94",
"*. c #1797AB",
"=. c #2A96B0",
"-. c #0CA9B3",
";. c #29ABB4",
":. c #27AA9C",
">. c #4FB1B6",
",. c #649CA4",
"<. c #0DC8BA",
"1. c #1BA8C8",
"2. c #04B7C9",
"3. c #18B7C7",
"4. c #02BDDC",
"5. c #04B9D6",
"6. c #18B8D6",
"7. c #05AACD",
"8. c #27B7CA",
"9. c #2BB3CF",
"0. c #04BAE6",
"q. c #07BEF8",
"w. c #14BBE6",
"e. c #21AAD3",
"r. c #4CBAC5",
"t. c #61BCCE",
"y. c #02C7CB",
"u. c #19C6CA",
"i. c #00C3D3",
"p. c #01C4DC",
"a. c #01CBDC",
"s. c #08C9D8",
"d. c #16C6DA",
"f. c #03D6D9",
"g. c #19D6D9",
"h. c #27C8D9",
"j. c #28D6D9",
"k. c #32CCD3",
"l. c #01C5E4",
"z. c #01CBE4",
"x. c #02C4EB",
"c. c #01CBEB",
"v. c #0BC7E7",
"b. c #16CAE8",
"n. c #02D3E4",
"m. c #01D3EC",
"M. c #02DBEC",
"N. c #07D8E9",
"B. c #17D6E8",
"V. c #02C5F4",
"C. c #01CBF3",
"Z. c #07C8F8",
"A. c #16C9F7",
"S. c #01D4F3",
"D. c #01DBF3",
"F. c #02D5FC",
"G. c #0BD4FD",
"H. c #02DCFC",
"J. c #0BDCFC",
"K. c #0BD8F3",
"L. c #16D9F9",
"P. c #27D8E8",
"I. c #37DAEA",
"U. c #26D9F7",
"Y. c #2CD2EC",
"T. c #04E3E8",
"R. c #01E3F4",
"E. c #02E3FD",
"W. c #08E6F9",
"Q. c #17E6FB",
"!. c #10EFF9",
"~. c #28E7FA",
"^. c #35EAFC",
"/. c #29F2FF",
"(. c #36F2FD",
"). c #2CE8ED",
"_. c #27E7D9",
"`. c #4FCFD4",
"'. c #6FD0D8",
"]. c #72E6DE",
"[. c #48D6E8",
"{. c #53D8F1",
"}. c #70D5EB",
"|. c #49E7FC",
" X c #51EEF5",
".X c #68E8F9",
"XX c #79E7F8",
"oX c #68F5FB",
"OX c #72EFEF",
"+X c #4AE4DA",
"@X c #65C9BF",
"#X c #AFB1A9",
"$X c #A09D99",
"%X c #FBB88E",
"&X c #CFAF9F",
"*X c #FCC896",
"=X c #FFD69A",
"-X c #FDCC8A",
";X c #FED9A9",
":X c #FDDAB8",
">X c #F4CCB3",
",X c #FDE5AB",
"<X c #FEE7B7",
"1X c #FFF3BA",
"2X c #DBD0A8",
"3X c #85BDC8",
"4X c #8BD1D7",
"5X c #B1CCD4",
"6X c #8DDAED",
"7X c #87F9FC",
"8X c #97F9FA",
"9X c #8FE8EE",
"0X c #A3FCFC",
"qX c #ACFEFF",
"wX c #A8FAF7",
"eX c #B3FEFE",
"rX c #BCFEFF",
"tX c #B6F9F8",
"yX c #AEEFEE",
"uX c #A2DFE3",
"iX c #D0CFCE",
"pX c #FCDCC4",
"aX c #EDD5D2",
"sX c #D2ECDB",
"dX c #FEE7C7",
"fX c #FFF3CC",
"gX c #FCF7C8",
"hX c #E9EBDA",
"jX c #FCE9D7",
"kX c #FCF7D9",
"lX c #E8F0D7",
"zX c #D9F8EA",
"xX c #C4FEFF",
"cX c #CBFEFE",
"vX c #CCF4FA",
"bX c #D3FEFF",
"nX c #DBFEFF",
"mX c #D6F7F8",
"MX c #D4EDEF",
"NX c #E8EBE5",
"BX c #FAEBE6",
"VX c #EAF8E8",
"CX c #FEF3E3",
"ZX c #FDFCEC",
"AX c #F8F8E9",
"SX c #FAECF6",
"DX c #ECFDFD",
"FX c #E8FAF9",
"GX c #FCFDF3",
"HX c #FEF4FC",
"JX c #F3FDFE",
"KX c #FDFCFD",
"LX c #F7F7F6",
"PX c #ECEEFC",
"IX c #D8DAE3",
"UX c #BFC1C7",
/* pixels */
"C.C.V.Z.c.c.m.D.m.W.D.D.E.J.G.G.E.E.D.R.R.!.E.H.J.J.H.H.H.L.^.|.P.B.x.0.x.p.y.i.E.E.H.D.z.c.G.V.Z.c.l.a.2.N.~.Q.E.E.F.C.x.x.v.b.",
"C.c.C.C.C.c.S.D.D.W.D.D.E.J.G.J.S.E.E.E.R.R.R.D.v.b.b.b.B.Y.[.{.k.k.7.A.6.d.-.P.!.H.W.M.Q.C.0.G.G.c.m.a.a.Q.~.L.E.E.S.C.x.v.v.v.",
"v.x.c.C.C.C.C.K.J.R.M.D.E.F.F.F.S.K.z.K.K.a.g.u.`.`.t.>.&.j g 8 a g @.&.%.r.`.k.v.a.T.f.N.S.l.5.7.5.Q.N.B.~.Q.K.D.S.C.c.x.v.v.z.",
"v.l.c.c.V.V.Z.G.H.R.D.W.K.c.c.C.4.v.b.b.I.8.k.:.8 6 - % % % X X   = = 4 7 6 7 a *.I.<.j.U.0.i.B.^.P.(.B.^.(.Q.m.c.x.l.l.x.l.z.z.",
"a.p.l.x.V.V.F.H.H.D.D.K.z.l.c.S.S.z.6.1.#.7 4 - % % X @ > w w w , , 0 DX#X6   & 4 4 8 >.[.I.^.g.oX XoX|. X/.W.J.x.x.l.l.l.l.z.z.",
"a.a.l.x.V.C.F.H.H.m.c.v.p.l.m.z.5.7.@.a 3 + . . . $ r c n ! [ ] ] ) >XkXAXAXr # .   = 6 7 >. X XOX7X7XoX X~.W.H.x.v.v.l.l.l.z.c.",
"z.z.z.c.S.S.H.E.F.c.c.l.4.d.6.*.=.8 & O $ < w c ! ~ Q ^ W W ^ ^ N Q O.1XkXdXO.m t < < @ % X - yXeXxX8X.X^.Q.W.c.c.v.v.v.z.z.c.c.",
"z.c.m.K.D.D.H.E.F.V.C.x.s.8.=.j - % % . w ' Q ^ Y T F D D D F U I C ~ ;XfXfXL L ~ X._ : @ $ . o z yXrX8XI.m.E.S.c.c.v.v.l.z.c.C.",
"C.S.K.M.M.R.R.S.G.0.F.l.-.=.a * o . i } ~ Y A Z F T J D Z B S S I U ! ;XjXdXL P ..;XjX#X} . : : @ O uX6X[.B.H.S.H.c.x.v.c.c.C.V.",
"G.H.R.R.T.M.M.z.0.Z.0.6.;.p = ; f aX>X*X~ R G Z Z F J F S Z S S I P m pXBXdXY P ..,XdXjXjX} ` > # $ = uX[.~.W.W.H.m.c.c.c.c.Z.V.",
"H.F.D.R.N.f.a.a.S.0.7.=.5 3 o ` HXSXCXkX=X! H T F I U A G G S I A / ' dXjX:XK P K o.,XdXAXpXX.| > ,   & '.[.B.z.J.S.S.S.c.x.Z.V.",
"H.S.D.D.n.a.a.a.p.d.*.p 3 3 $XLXHXKXAXjX<X*XQ Y C G I I I I I T U / ) :XjX;X/ U P R ! =XjXjX-X' _ > @ O 7 }.I.~.L.D.H.H.c.x.Z.v.",
"H.D.D.J.c.p.p.s.-.*.5 5 o $.VXLXLXLXAXZXfX,X| K A G S Z A U C A I C X.;X1XO.L U C I A P [ o.K Q X._ , . o = }.I.B.K.E.H.c.x.x.x.",
"M.D.H.J.C.l.p.6.;.a 4 o x HXKXLXKXLXKXZXkXdX1X{ Y A I S U ( Y ^ H K ;X<X1X| L U I S Z R T ( R L %X>X>X1 . - 8 `.h.K.E.E.c.l.l.v.",
"n.m.H.H.F.C.0.1.p &   0 AXGXNXKXzXJXPXHXSXZXfX<X{ Y T C K ! n n c c jXdXdX| / T T Z B Z C N / +.<X>XpX:Xr   4 a 3.n.W.H.c.l.v.s.",
"N.N.H.E.D.c.1.#.3 - q AXAXAXKXVXDXzXKXHXKXKXAXkX;X .N c e e > < > > BXSX#X: t / E W T F P Q o.=X:X:XdXpXjX$ + = ;.u.K.H.c.c.N.n.",
"M.D.D.m.T.s.=.p X . iXKXKXLXGXVXVXJXHXHXKXPXJXVXAXi , # : . - 2 % NXSXKX% X @ > < ] [ ^ [ %X:XdXkXkXHXHXBXaX: . - '.s.m.S.S.z.m.",
"D.m.D.N.y.u.s * @ i jXHXBXKXGXhXLXNXHXHXSXJXDX5X9 - X O * a %.%.,.bXFXvXg 2 X O ; # y ' %X:XjXGXZXVXKXPXKXLX$X@ % g j.W.S.E.!.E.",
"H.S.J.B.2.*.3 $ > *XpXBXAXGXNXLXVXGXNXKXHXHXUXl o = 8 >.`.8.6.8.wXcX8X;.-.;.&.7 3 3 @ 1 2XfXAXNXGXLXJXMXDXFXNX0 2 6 3.N.!.E.W.H.",
"F.H.S.b.k.g & @ M | ;XpXZXsXLXVXVXVXVXKXHXIXf o 4 ,.'.OXh.d.w.1.eXxX7X-.y.2.8.=.=.5 * O } kXAXGXZXLXDXFXDXFXFX5X  - h h.T.R.D.E.",
"G.J.m.B.r.7 + > ! Q  .*XfXCXGXVXGXGXKXSXaXq & 6 4X9XOX X(.B.Y.}.nXcXk.2.K.4.4.w.1.9.7 4 + UXLXsXLXHXHXKXZXAXMXJXq o p }.u.f.R.J.",
"A.J.R.B.h * : c K R / ~ <XfXkXAXhXhXKXiX0 o 8 '.].OX7XoX X|.{.8XvXbX8.5.x.Z.G.c.4.h.;.5 & 0 #XKXKXKXHXLXCXhXJXMX#X+ 3 ,.k.g.N.K.",
"d.a.T.g.3 . < ] Y P P /  .*XdXdXZXGXNXl 4 6 :.`.].9XeX9X7XXXXXeXnXxX3.5.x.0.l.a.i.s.2.;.7 o x KXJXJXFXKXZXZXLXVXaX, + 7 `._.g.~.",
"h.u.f.j.* > e ^ R U U C W ( %X:XjXhXx o 7 `._.).OX8XrXeX0X8X9XeXbXrXh.i.x.x.m.n.n.i.i.3.=.5 * #XKXLXPXKXAXkXlXZXpXr $ * ].+X X X",
"`.+Xj.%.= : M ( U U I S D T ( O.>X$X  4 j u.).).oX7X8X8X8X9XuXrXxXrXu.f.l.c.l.n.z.i.K.b.1.h * 0 BXBXKXLXVXkXkXfX;X} @ * >.8X9XqX",
"7XOX+Xg o > E ( A U I S Z D Y ! _ , * 4 k.f.M.m. XoXoXoXOX].9XxXbXqXk.).z.l.S.c.L.L.S.l.5.9.5 o $XZXaXKXZXgXfX;X%XX.@ 3 k 0XeXyX",
"0X0XyX- @ < ^ J A S S S S S C K ) @ ; g k.K.S.J.L.U.L.B.j.k.OXqXbXbX].|.~.x.F.F.Z.F.H.!.L.8.a 6 u lXBXBXpXdX%X .[ ] > 3 & xXrXxX",
"0XeXvXo # < ^ A F S S S S S A K t $ 3 &.6.c.V.Z.Z.V.C.m.a.B.|.7XbXFX9X{.P.l.C.E.J.J.E.p.n.j.&.- % $XaXaX>X} ) ] ] ) > ; 5 4XqXqX",
"8XeXvX+ : e Y U F F S S S S I Y :   6 =.h.5.G.q.Z.q.Z.C.c.m.W.I.xXnXtXOX3.a.F.H.Z.m.!.M.T.u.`.6 X 1 $X&XdXkX<XgX1X;X$ o 4 tX9X].",
"7X9X5X+ > c Y I G F S S Z S S Q : O 7 =.d.l.G.G.q.V.x.x.c.m.c.p.XXrXbXeX`.|.Y.U.U.).j.j.j.+X'.2 #XaXCXjXdX<XgX,X<XkXGXIX4 4XOX.X",
"}.'.3X- < M R U G D S Z Z D F Q : & 8 ;.3.z.4.c.l.c.v.4.c.c.l.d.u.OXnXFXxX0X}..XoXOX].qXyXyXbXmXAXjXCXjX<X<XdXdX<XfXAXFXcX].[.I.",
"[.`.t.= : n / P A F Z B B D F ^ # - g -.6.p.m.c.l.K.l.5.z.v.4.v.-.u.qXbXcXxXrXeX8XwXvXmXDXDXnXDXAXCX:XX.) ) ' ' ' X.BXJXrXOXu.).",
"a.h.t.o , b ' / U I S Z Z S I K : & 8 *.6.0.Z.V.Z.V.v.l.l.z.l.c.l.v.h.{.7XqXxXcXcXnXJXFXKXJXnXFXl : ! N ^ ^ N Y K ! t #X4X`.g.M.",
"M.g.'.= ; i %X-XR I Z Z Z S I Y : & 6 ;.6.0.A.Z.Z.V.x.l.l.l.c.c.S.c.z.b.I.oX8XrXxXnXvXMXJXFXDXo @ > N A T G T T S Y e + 7 8.s.M.",
"M.d.4X4   q dX1X{ U C S S Z Z ^ : & 7 ;.6.p.c.x.c.z.n.n.z.z.v.x.l.z.N.K.B.B.P.k.{.'.0XrXxXvXIX  : t ^ P I V Z S I H < o p *.5.m.",
"M.d.'.4 & % kX<X..R P U F D Z ^ y o 7 &.d.p.m.z.l.z.n.n.z.x.v.x.l.m.D.J.F.S.m.c.U. XoX7X9XxX,.$ w v ^ C S S F T C Y > 3 s =.v.l.",
"M.B.`.7 = X CX<X .K P F G F S ^ ) # 4 g u.a.D.m.l.l.z.z.z.c.x.c.m.D.S.F.F.H.E.E.W.Q.). XXX4X3 @ w ~ Y S B B ( / R ~ # * 5 9.w.0.",
"m.L.9.g &   CXfXO.K P D V F S H ] < $ = *.i.m.c.x.v.v.v.c.l.c.c.m.S.H.H.J.H.D.m.R.n.(.I.7X4X4 @ w / C T B D -X-X..m . 5 h -.w.q.",
"J.Q.g.%.=   BXkX=X~ T D Z F S J W v : X j -.l.x.V.q.w.v.c.z.c.c.K.K.F.H.E.E.E.W.M.B.j.oX6X6 O # M ( U T C  .1X1XO.n . 4 %.-.A.0.",
"G.c.n.8.4 + NXjX1X| J Z Z S Z S T E < . 7 *.6.Z.V.V.q.0.c.c.c.c.b.K.J.E.E.H.H.D.m.B.I.'.3X-   # K C U P / -X1XdX| w . = ;.y.4.v.",
"V.x.K.h.4 - % kXgX=XC S Z B Z S T Y c : + 5 =.7.x.x.C.x.c.S.x.K.a.Q.W.S.H.H.F.J.K.P.[.].&   @ ) L U P R Q ,X<XdX_ <   - u.a.5.A.",
"0.C.c.Y.g X X VXgX,XP S I S Z V V Y ] < # 3 s 1.d.p.l.m.J.S.V.F.N.T.R.E.E.J.J.L.U.h.`.8   1 &X%X..R K K ! =X,X&Xb # & j u.z.K.4.",
"F.0.Z.6.>.mX9 u dX,XR I V V T P { ~ o.:X$X; 5 4 *.-.2.s.b.G.H.H.E.M.M.E.R.D.S.b.9.}.3 3 f #XBXkX;X=X .Q N E  .) #   6 =.6.5.z.K.",
"c.S.7.9.eXzXFX. $XX.Y A U ( N Q  .O.<XpXaX$X& = 8 %.;.k.h.b.Q.H.R.M.R.W.N.B.P.9.@.4 3 z 5XJXBXCXpX;X;XO.( ^ E ) # & g *.A.A.l.p.",
"D.l.A.9.wXsXJX. < ] ^ P Y K ! o.;XgXdXCXGXNX$XO O O 6 &.'.9.b.z.M.n.d.h.k.r.%.6 & & #XJXMXJXKXHXHXjXCX:Xo.~ ] w @ & =.6.0.0.c.c.",
"a.D.0.1.4XzXJXq > b Q / Q | ;X;XfXCXBXKXKXFXJXIXX + - - 4 g %.-.-.3.*.j a 6 - X X $XLXDXJXMXKXSXSXHXhXkX-X| n >   7 3.7.A.A.c.l.",
"z.l.w.8.cXFXMXo $ : ! { ! *X:XdXCXAXKXSXPXJXFXDXLXx # .   & & = 4 4 = & o . @ 1 #XhXGXVXLXKXLXSXHXLXKXCX,Xo.@ O 6 >.B.c.G.0.l.S.",
"p.4.b.1.eXnXcXg O @ e m %X:XkXBXGXNXKXKXHXFXDXFXGXkX>Xb # # : # @ # # > > < b *XjXCXhXKXSXSXSXKXAXKXLXaX<Xi O & j .Xp.E.c.C.Q.c.",
"i.p.2.h.qXeX`.:.2 2 @ y pXCXBXKXVXVXAXLXJXFXPXKXZXfX;XO.~ L / N N M N E W H /  .fXkXLXKXKXHXHXZXCXjXCXaXUXO * p {.I.K.m.J.J.H.H.",
"s.5.2.|.eXqXu.-.&.6 o * UXGXHXLXVXVXZXGXDXJXHXSXCXfX=X{ L U I Z I A F F S Z U / ;XdXGXDXDXKXHXCXjXjXkXiX& 4 5 }.[.~.L.D.D.D.S.H.",
"b.5.2.7XcXxX9.5.8.%.4 6   jXGXZXKXBXSXKXHXHXKXHXCXfXo.K P U S S S S S S S S S P  .;XkXGXFXzXAXjXjXhXiXl 4 7 =.{.|.^.W.D.m.c.l.c.",
"0.7.3.7XvXvX[.b.7.1.@.4 X % BXBXBXSXKXKXHXPXHXHXZXdX[ Y T F B Z Z Z Z Z S S S U Y o.<XlXFXFXAXCXVXiXz = 7 &.8.P.|.^.W.m.z.z.l.v.",
"C.l.I.0XJXDX6X|.b.v.7.@.6 - ; iXBXAXVXFXFXFXPXLXZXfXQ T T F B B S S S S S F F D G / ,XfXVXDXVXhXiXz 4 4 @.-.y.B.~.~.Q.K.n.a.p.z.",
"l.v. X8XDXPX9X{.U.5.c.7.j 6 O + #XNXJXVXVXVXFXGXkXgXQ ( J D F B F I I S F F F D T K o.dXhXNXGXUXk 4 5 %.u.y.y.a.N.~.^.U.N.i.i.a.",
"P.I.oX9XnXFX0X.X|.|.G.c.P.*.7 - & $XKXLXlXAXGXCXfX*X^ T G A T Z Z Z S S F F F I P K ! %XBXiX#X0 5 p =.-.y.T.y.M.m.Q.^.^.U.s.i.a.",
"|. X.X9XcXnXwX9X.X|.L.c.p.h.r.7 = o l iXKXAXVXCXfXX.H F F A P P A A P Y ^ H H Y K ! ' t ` x * 4 s =.9.d.i.a.n.n.D.Q.~.^.(.^.Q.!.",
").I.oXXXcXmXnXxX9XOXI.~.~.h..X'.#.3 3 ; x KXNXkX:X| ^ ( V U R L / ! ~ | ' ] ! ] m w : @ = 3 s @.e.6.d.v.v.l.c.m.J.W.Q./.(.(.(./.",
"L.U.|..XqXxXnXmXcXqX]. XI.[..X}.}.0Xd o o & l 1 $ < v E ( N ..=X=X=XdXpXjX>Xt w > #   & 7 h 1.w.w.l.l.x.v.0.c.K.S.J.W.!./.(.(.^.",
"V.x.U.I.oX7X0XyXtXxXxXxX6X6X}.XX}.}.4X4X#.4 = &   . > b :XgXkXdXgXkXkXGXNXAXAX. $ - 4 @.k.u.b.5.c.c.c.x.x.x.S.J.K.L.Q.!././.^.P.",
"0.l.K.L.|.|..X}.eXeXbXbXnXbXeX0X8X6XuXuX'.9X5Xz $XFXHXLXkXkXNXGXlXUX#XuXrXxXyX2 a t.`.j.f.T.Q.4.m.m.x.x.x.c.S.J.K.L.Q././.Q.B.B.",
"y.i.n.m.L.A.A.b.6.9.7XqXcXbXcXbXnXFXsXmXbXtXDXPXDXDXMXFXzXzXl o 6 & s s %.-.-.u.h.I.n.W.R.R.D.Q.S.m.c.C.m.S.S.J.S.K.L./.!.M.p.v.",
"y.y.i.l.q.q.x.x.x.5.8.`.}.qX0XeXcXxXxXxXeXxXbXnXxXeXxXtXyXxXvXvXuX}.`.1.5.5.L.2.n.S.H.E.E.E.M.W.D.D.F.H.E.R.H.W.D.D.Q./.!.n.p.v.",
"n.z.x.V.Z.V.a.f.i.a.B.L.v.B.g.j.B.B.P.I.k.k.|.6.h.k.XX9X9X9XeXqXXX{.Y.2.v.0.0.C.S.D.E.H.H.H.T.f.R.E.E.E.E.H.E.E.D.E.!.!.K.p.p.v.",
"z.l.0.q.Z.V.y.<.y.i.N.D.E.H.T.f.D.E.F.c.B.B.c.F.c.B.[.'.XXXX0X9X{.Y.s.5.Z.V.Z.V.m.S.J.H.G.S.T.f.R.E.R.E.D.S.D.D.M.E.!.E.l.5.5.p."
};
