/* XPM */
static char *b5fcd165359a4095abe715044acb5e2e87LUEHFPHOILEEFX[] = {
/* columns rows colors chars-per-pixel */
"64 64 232 2 ",
"   c #00B8CF",
".  c #00BED5",
"X  c #00BCDC",
"o  c #00BFE6",
"O  c #02BFEB",
"+  c #0CBFE8",
"@  c #01BFF1",
"#  c #00C9D5",
"$  c #01C4DC",
"%  c #01CBDE",
"&  c #00D0D7",
"*  c #00D1DC",
"=  c #0AD5DD",
"-  c #01DBDD",
";  c #0DD6DB",
":  c #17DFDF",
">  c #21CADF",
",  c #29DBDD",
"<  c #38D7D3",
"1  c #00E0DF",
"2  c #01C5E5",
"3  c #0AC4E4",
"4  c #00CAE5",
"5  c #0CCDE3",
"6  c #01C6EB",
"7  c #0AC4EC",
"8  c #01CAEB",
"9  c #0ACAED",
"0  c #14CDE3",
"q  c #18CEE3",
"w  c #12CFEF",
"e  c #13C5E1",
"r  c #01D3E5",
"t  c #0AD4E5",
"y  c #01DBE4",
"u  c #08D8E5",
"i  c #01D3EC",
"p  c #0BD5EC",
"a  c #02DBED",
"s  c #0BDBED",
"d  c #15D4E6",
"f  c #1DDCE4",
"g  c #12D5EC",
"h  c #1BD7EB",
"j  c #13DAEB",
"k  c #1BDEED",
"l  c #16DAE4",
"z  c #02C5F2",
"x  c #08C1F0",
"c  c #02CBF2",
"v  c #08CEF2",
"b  c #07C7F8",
"n  c #00CCFA",
"m  c #09C9F8",
"M  c #02D4F3",
"N  c #0BD4F4",
"B  c #02DCF4",
"V  c #0ADBF4",
"C  c #03D5FA",
"Z  c #0CD5FB",
"A  c #03DDFA",
"S  c #0ADCFB",
"D  c #14DCF4",
"F  c #1BDCF3",
"G  c #14DBFA",
"H  c #19D8F5",
"J  c #22CDE7",
"K  c #23DBE1",
"L  c #2EDAE4",
"P  c #21D7ED",
"I  c #23DCEC",
"U  c #2BDCEC",
"Y  c #20D6E3",
"T  c #36DAEC",
"R  c #23DDF2",
"E  c #2BDEF2",
"W  c #22DFFC",
"Q  c #3ADAF5",
"!  c #00E2E6",
"~  c #01E2ED",
"^  c #0AE1ED",
"/  c #00E8ED",
"(  c #0AE8EB",
")  c #18E3E7",
"_  c #13E1ED",
"`  c #1BE3ED",
"'  c #16EDEF",
"]  c #1AE8EB",
"[  c #01E2F4",
"{  c #0EE0F2",
"}  c #0BE2F5",
"|  c #04EAF4",
" . c #0DEAF3",
".. c #00E0FA",
"X. c #06E2FE",
"o. c #02E2FB",
"O. c #09E2FF",
"+. c #0BE4FB",
"@. c #03EBFD",
"#. c #0BEBFE",
"$. c #14E3F4",
"%. c #1BE2F5",
"&. c #14EAF4",
"*. c #1CEAF5",
"=. c #13E4FA",
"-. c #1CE5FB",
";. c #14EBFD",
":. c #1BECFE",
">. c #0BF2FD",
",. c #14F1FF",
"<. c #1CF3FF",
"1. c #1FF8FF",
"2. c #1DF1F4",
"3. c #24E5E6",
"4. c #23E4EC",
"5. c #28E0EC",
"6. c #25ECEE",
"7. c #29EAE5",
"8. c #38E1E6",
"9. c #35E3EC",
"0. c #3DE5EB",
"q. c #36ECED",
"w. c #24E5F4",
"e. c #2DE4F4",
"r. c #23ECF5",
"t. c #2CEBF4",
"y. c #23E6FE",
"u. c #2AE6FB",
"i. c #23ECFD",
"p. c #2AECFE",
"a. c #35E4F3",
"s. c #3AE7F4",
"d. c #35EAF2",
"f. c #3DEBF3",
"g. c #33E4FD",
"h. c #3DE7FC",
"j. c #34ECFB",
"k. c #3BEBFC",
"l. c #2EF4F7",
"z. c #24F3FF",
"x. c #2CF3FF",
"c. c #27F9FF",
"v. c #2CFBFF",
"b. c #33F3FE",
"n. c #3BF3FE",
"m. c #34FCFF",
"M. c #3BFDFF",
"N. c #36F4F4",
"B. c #41DFDE",
"V. c #46E2DF",
"C. c #5DE2DD",
"Z. c #55DEED",
"A. c #44E5EE",
"S. c #43EAEC",
"D. c #4CE6EB",
"F. c #59EAEF",
"G. c #41E2F6",
"H. c #44EBF2",
"J. c #43E7FF",
"K. c #45EDFD",
"L. c #4CEDFC",
"P. c #4BE7F6",
"I. c #59E3F3",
"U. c #52EAF5",
"Y. c #5CEAF5",
"T. c #53ECFD",
"R. c #5BEDFD",
"E. c #53E5F7",
"W. c #43F3FF",
"Q. c #4CF4FE",
"!. c #42FCFE",
"~. c #4CF8FD",
"^. c #43F2F5",
"/. c #54F4FF",
"(. c #5BF2FD",
"). c #55FCFF",
"_. c #5EFFFF",
"`. c #5CFCFF",
"'. c #52F1F7",
"]. c #6DE6EF",
"[. c #6BEBEC",
"{. c #7BEDE5",
"}. c #61E4F2",
"|. c #69E4FD",
" X c #65EEFC",
".X c #6AEEFD",
"XX c #68ECF4",
"oX c #73ECF7",
"OX c #78EFF3",
"+X c #71E7FF",
"@X c #74EEFD",
"#X c #7DEBFF",
"$X c #65F4F6",
"%X c #65F3FE",
"&X c #6CF3FE",
"*X c #63FBFF",
"=X c #6CFCFF",
"-X c #74F4FE",
";X c #7BF4FD",
":X c #74FCFF",
">X c #7CFCFF",
",X c #7DF5F4",
"<X c #91F5ED",
"1X c #86EDFB",
"2X c #93EDF4",
"3X c #91EFFB",
"4X c #82F4F5",
"5X c #86F5FF",
"6X c #8DF3FF",
"7X c #84FDFF",
"8X c #8AFDFF",
"9X c #8AF4F4",
"0X c #90F1F7",
"qX c #93F5FD",
"wX c #9EF1FF",
"eX c #93FDFF",
"rX c #9BFDFF",
"tX c #96FBF7",
"yX c #8BE6E9",
"uX c #A1F2F7",
"iX c #A4F4FE",
"pX c #ABF5FD",
"aX c #A4FFFE",
"sX c #ACFCFF",
"dX c #B5F4FC",
"fX c #BFF4FF",
"gX c #B2FEFE",
"hX c #BCFDFF",
"jX c #C3FCFF",
"kX c #CCFFFF",
"lX c #D2FDFF",
"zX c #DDFCFF",
/* pixels */
"9 6 2 2 2 4 i B A A A A A S A O.A A A o.A B A ..A ..A o...+.<.=.+.V 8 2 2 2 c C A M M A A i 4 4 m b O o 6 M @.#.@.[ i 4 4 4 8 6 ",
"9 6 6 6 6 6 i B S B A A S M M A A A A A A A B A A ..A A M B &.{ } V i 4 6 8 C A A A A X.X.M i M 6 6 6 2 i +.;.O.+.B i 4 4 8 8 6 ",
"8 6 6 6 6 6 i B S S S S S M M M M M A A A A A A B A B A a s i.r.{ B i i M S S O.o.o.o.A i 4 $ . $ r p p H y.y.V V i 4 4 6 6 6 2 ",
"6 6 6 6 6 6 i B S B B S C M 8 8 M M B A A A o.o.B A B V V k b.b.$.V a i M A X.X.A A A B M i i % l t.j.e.a.j.u.5 4 4 4 2 6 6 2 O ",
"6 6 4 6 6 6 M S B M M M M 8 8 8 8 8 i i M B A X.A A S G h I k.j.%.{ a i i M A A A A B a B $.D d ~._._.~.W.W.u.d $ 2 2 2 8 6 6 6 ",
"6 6 6 8 8 8 M S M 8 6 6 8 8 2 6 4 4 4 8 8 M A A C A N F R s.).Q.x.:.$.V B A A A o...B B } $.%.U :X7X>X`.^.N.w.t 4 4 2 6 z z 8 6 ",
"2 4 8 M B M B S M 6 2 2 8 8 6 6 2 2 4 4 6 8 c C c C N W k./.=X_.M.c.:.&.+.+.o...B B ..#.<.x.M.*XrXsXeX*Xq.] ~ a 4 6 6 6 z z 8 8 ",
"2 4 M S +.S S S M 8 2 6 c 8 8 8 2 2 4 6 6 8 8 c z c 9 W k./.=X_.!.v.z.;.;.+...B ..[ o.#.:.i.M.=XsXhXrX*Xt.( ! y i 6 6 6 2 8 8 8 ",
"i M A A S S M 8 6 6 6 6 8 6 8 8 2 2 8 6 6 6 6 8 z 8 2 F k.Q.*X`.t.*.$.} } } A A B [ [ [ a g u.(.qXiX;X/.r.y ~ [ M c 6 6 9 6 4 4 ",
"M A +.S S S M 8 6 6 2 6 6 6 8 8 2 2 8 8 6 2 2 8 6 2 2 H k.W./.Q.w.$.V p a V A A A ....B i p %.h.|.+XT.n.:.~ [ ..A M z 6 6 8 4 4 ",
"M B A B M M 8 2 6 6 2 6 6 6 6 6 2 2 8 8 2 2 2 6 2 6 2 H j.k.K.a.%.V i 4 8 M B A ..A ..A a u g F R E R i.:.O.@.A A S C 9 6 6 3 2 ",
"M B B M 8 6 2 2 6 6 6 6 8 6 6 6 6 6 8 9 2 2 2 4 6 6 2 G i.u.e.I s u 4 4 2 8 M A A A A A A a p V i a a ;.<.;.;.S S S M N 9 2 3 2 ",
"B B B M i 6 6 6 6 6 6 6 8 8 8 6 6 z 8 6 4 4 4 4 8 8 2 B -.$.F t i 8 4 6 2 z c C C C A A o.A V B a [ [ #.1.<.:.S S S S M 8 2 2 2 ",
"B B B M 8 4 2 8 6 6 6 6 8 2 2 6 z z z 8 4 4 2 4 4 8 4 B +.V a % 4 4 6 6 6 z z c n c C A X.A A A [ @...@.<.<.:.V M B A M i 6 2 2 ",
"M B B M 8 2 2 8 6 6 6 6 8 2 2 6 z z z 8 4 4 2 4 4 i i ..@.M i % 4 4 6 8 z z z n z z C A o.A A A A o.B [ #.#.,.[ a B A M i 8 8 C ",
"V V V S M 6 2 8 8 8 8 8 z 6 8 z z z z 9 2 2 2 4 4 i M #.#.A i 4 4 4 6 6 2 6 6 z z n C A A A A A M V i M ..[ #.[ ~ [ B a 8 8 M A ",
"i a V B i 8 c c n n n n n n n c 6 6 6 6 7 9 9 2 4 r a } O.A C 8 8 4 4 4 4 2 2 6 z n n C C M B V +.A B A ..o.[ [ B [ B a r 4 4 4 ",
"u a B B i 8 8 c z z z z z z z 8 8 8 6 6 6 6 4 4 4 r y B A B M 8 i i i 4 4 5 3 9 6 z n n c c M A S A A A A ......o.[ ..o.#.#.#.O.",
"a s B B i 4 4 2 2 3 + 3 3 2 2 2 8 6 6 8 6 2 4 i * r y ~ ~ B a i 8 8 6 4 3 2 2 6 6 z n n 8 4 i A A A A A B B B ..o.B a B @.@.@.o.",
"a a B a i r 4 2 3 3 3 3 3 3 % 4 8 2 6 8 8 $ 4 s _ ` *.*.$.s i 4 2 6 6 2 2 3 2 7 6 z n z 2 2 i A B A ..A B B A ..#.o.B [ o.@.o...",
"i a M B M i 8 4 2 2 3 3 % % % 4 9 6 6 i 8 $ 4 j n.~.).Q.h.U 0 $ 6 z 6 2 7 7 7 7 x x z z 6 2 8 V M ......A A o.O.;.#.o.......[ o.",
"M M M B A B i 8 2 2 2 2 4 4 % 4 8 2 6 8 4 $ % q /.=X>X>X XE.T J 9 z 6 2 2 6 6 z x z z z 2 2 9 V A ......A A o.+.;.;.:.=.s u s s ",
"M M M S S S C z 2 2 2 2 2 4 6 6 2 6 8 i i r 5 > R.;XrXrX6X#X|.P.N M i 4 8 8 8 8 z 6 z z c c M S A ..A A A B A } =.i.m.b.e.U U a.",
"a a M V A B M 8 8 8 8 8 8 8 8 8 6 M B A ..} %.U %X8XaXaXqX5X@XT.%.} a i i i i 8 c z z c C C A A A A A A M M a a r ` k.Q.P.Z.Z.}.",
"1 - - y y y a i i 4 8 i M M M M 8 M o.[ [ [  .w./.=X7X8X7X:X(.Q.n.i.p r i 4 8 6 c c c C C A A A A A X.A A B B s j I /.Y.7X1XrXwX",
"!.N.7.3.3.4._ s +.#.#.#.@.o.o.@.o.#.@.@.[ [ | $.n./.*X*X`./.!.!.s.k.R F p 2 2 2 N Z S S S A o.A A S X.A A B B ^ r.d.`.&XrXiXhXhX",
"aXeX4XOX;X:X%XT.W.n.b.z.:.} } =.S =.O...B a a y j f K K f ) ' r.K.T.J.g.H $ 2 6 N N N N S A A A A S A A A B [ ^ r.d./.XXrXiXhXfX",
"hXgXpXiXsXaX8X&X(.W.b.i.$.u r 4 8 i i i i i r 4 % % # # & y | &.k.L.k.u.g $ 8 i p p s a a B ..A A S A A A A [ ~ x.b.).%X8XqXsXpX",
"dXdXdXdXsXaX5X.XL.s.w.$.s r % $ $ 2 2 2 2 8 6 2 4 $ $ $ % i ..+.k w.%.=.B r a [ ~ y u - y y ~ ~ } +.A ..A ....[ ^ %.k.K.R.}.oXoX",
"yX2X2X3X6X5X&XT.a.I j s B i 4 % 2 2 8 2 6 6 6 2 2 2 $ $ 2 4 8 i % y a @.@.o.@.| &.] 3.3.3.3.` $.;.#.[ [ [ ....A } :.x.n.W.K././.",
"< B.D.D.U.L.h.E j p a M M M 8 6 4 i i 8 6 z 6 6 v 9 9 8 z z z 6 % i B @.@.o.;.-.n.Q.*X=X:X=X%XQ.*.| | [ [ ..A A M A +.=.$.$.%.*.",
": 6.l.b.b.b.r.p V M B B M c v v i V V M z z z 6 8 8 8 8 z z 6 6 2 i M ..o.A #.%.k.(.>XeXrXrX1X X` | ~ ~ ~ ......B A A B a a a [ ",
"r s +.;.;. .[ } ..A B B B 8 6 8 i M M 8 8 8 8 2 8 6 6 6 8 8 6 6 z c M B ....+.%.k.U.8XgXjXhXuX>X` [ ~ a [ ......B ....B M a A +.",
"a A @.#.@.o.[ [ ..B A A V i 4 4 6 8 8 6 6 6 6 2 6 6 6 6 6 6 6 6 z c M a [ [ A G e.U.8XgXjXjXuX>X` [ B a B ....B ....A M i i M V ",
"M A o.@.o.......o...o.o.A i 8 4 2 6 8 6 6 6 6 2 6 6 6 6 6 6 6 6 z z M a B B A V R H.>XrXgXgX0X&XF ..B M A A A B A A B M i 8 8 i ",
"B A ......B B ..o.o.@.+.A M 8 4 6 8 9 8 6 6 6 2 6 6 6 6 6 6 6 8 6 v M a B A B B D a.=X4X0XqXoX(.%.o.B B A A S M M V M i 8 6 6 8 ",
"A A A B B B B B ....o.A B i 8 4 8 v v 9 6 8 6 2 6 6 6 6 6 6 6 6 6 8 a B [ A A A V w.(.XX].oXR.Q.=.O.S S S S S N 8 8 8 8 8 8 8 8 ",
"A A B B B B B ......o...B M i 8 8 9 v 9 6 6 6 2 8 6 6 6 6 6 6 6 9 M a [ ....A A B D h.U.I.R.K.n.=.X.S S S S Z N 2 2 6 6 8 8 8 8 ",
"A A A A A A ......o.@.o.A A B M 2 9 9 6 2 6 2 2 8 6 6 6 6 6 6 8 N M B [ ....o.A A i 5.H.T.L.u.i.O.A A A S S N m 6 2 2 6 8 8 8 8 ",
"A A B A A A ....A ..o.A A A A M 2 9 9 6 6 9 9 6 9 6 6 6 6 6 6 8 V V [ [ ....A o.A 8 h s./.K.k V X...A A A C C z 8 6 6 6 8 8 8 2 ",
"4 i S O.O.A A A A ..A A A ..A i 6 6 2 2 6 6 2 6 6 6 6 6 6 8 8 8 V V B [ A ..o.o.o.B w.s.Q.Q.R i A A A A B M 8 6 8 8 6 6 6 6 6 z ",
"2 8 M B B M M M A A ..A A A B i 2 2 2 2 2 2 2 2 6 6 6 8 8 M M M V B [ [ ..o.o.o.A i k s.U.T.a.%.} ......A M i 8 6 8 6 6 6 6 6 6 ",
"2 2 8 i M i 8 8 M A o.A A A B M 6 6 6 6 6 6 6 6 6 6 8 M M B S S A A [ [ ..o.o.o.A i 5.H. X%XT.W.{ [ B B a r 4 4 6 6 6 8 6 6 6 6 ",
"2 2 2 6 6 8 6 4 i B o.A A A B B M M M M M M M M i i M M B A S S A A ..[ ..A A A X.$.f.F.;X8X-X*Xu.=.{ s a r 4 4 4 8 6 8 9 9 z 6 ",
"6 2 2 2 6 8 6 6 i M A A A A A B A A A A A A A A B A A A A A S S o...[ [ ..A A A V w.'.[.qXgXrX;XK.u.k j t r % 4 r 4 4 6 6 6 6 2 ",
"9 2 2 2 6 8 8 6 8 M B B B A A A ........A A A A X.X.X.o.A A A A A ..[ [ B A A S V d.*X4XsXkXhXqXR.k.e.I j u r r a i 4 4 4 6 8 6 ",
"6 6 6 6 6 8 8 8 6 8 i M B A ..A ........A A A A A A A A B B B B B B a a B A A S D d.:XrXjXlXjXsX>X`.Q.K.n.p.:.&.} [ i 4 8 8 c c ",
"6 6 6 6 6 2 6 8 6 6 8 8 M A } B ..A A A A A A A M M M M M M M M M M a a [ ..o.} k 0.>XaXhXgXuXrX=X).Q.W.n.x.:.;.,.#.a i i M M M ",
"2 9 9 2 X 2 8 9 6 6 6 8 i a a ^ a ~ [ [ } B M M 8 8 6 8 c c z 8 9 i M ..[ ~ ~ _ W.U.5XrX8X&XH.N.p.i.-.-.=.&.:.z.+.} B M M M M S ",
"2 2 2 2 2 6 6 2 2 2 2 6 i a a ~ ~ ~ [ [ ..B a i 6 2 2 2 6 6 6 6 6 8 M A [ ~ / &.W.E.;X7X&XQ.2.>.#.+.A B M B } ;.#.} B i B B B M ",
"6 6 2 i A A M 6 z 6 6 6 8 M A [ [ [ [ [ ..M i 8 8 c z z z v z 8 2 8 M B A B | &.b.a.T.R.L.j.^ ~ A M i i r i a } <.;.V i i 8 8 8 ",
"6 2 6 +.,.;.+.N z z 6 z z C A ........A M i 8 6 6 6 6 6 6 6 2 2 2 8 N S O.o.#.;.*.j U E R %.s a B M 8 8 4 r i B z.;.V 4 $ 2 4 8 ",
"2 2 p i.m.m.p.y.g 9 6 6 6 c C A A A B M 8 2 2 6 6 6 6 6 6 6 6 4 4 i G -.:.:.;.#.| r a s p V B B M v 6 6 4 4 4 i :.:.=.V 4 $ 4 8 ",
"5 5 I W.).`.~.W.P g 8 6 6 8 M M S S M c 2 6 6 6 6 6 9 6 4 4 4 4 4 i G y.p.z.;.@.@.y [ a M A A C C v 8 6 4 4 4 i V ;.:.=.i $ $ $ ",
"Y L A. X>X7X:X(.9.` y r r i M B A A B M 6 6 8 8 6 4 4 % # # % * u D y.u.u.:.#...@.~ @.[ A o.C C m 9 9 9 6 4 8 i i =.:.:.V 4 % % ",
"9.S.Y.-XeXrX8X$XH.r.( ! y a A V A A A M i 8 i i V V s u ; ; ; l k i.x.p.y.=.A i [ a @.@...o.C z z 6 2 8 6 6 8 i i V :.i.:.$.%.%.",
"f.H.Y.@XeXrX7XXX~.l. ./ ~ [ } +.o.o...M i i i i D h I U L 8.S.0.n.n.b.i.=.} A A ....[ ....X.C c 6 z 2 2 v 6 2 M i =.-.i.m.m.i.x.",
"e.s.U.%X>X8X>X(.f.r. .| @.#.#.#.>.>.@.o.A V V H g.h.T.%X.X@X;XXX'.W.b.*.} M a M A ..B B o.A M 8 6 2 2 8 8 8 8 B B =.$.$.z.x.x.x.",
"$ 0 I a.W.Q.K.a.h g i M A X.@.o.@.@.#.#.=.-.u.k.(.&X8XaXsXhXjXpX-XQ.t.*.[ a i B V V V M A V M 6 2 2 2 6 4 6 M B M +.=.=.x.x.i.%.",
"X 4 p D -.i.w.H 9 2 o 6 8 M A A a [ [ o.+.=.y.k.(.-XeXsXhXlXzXjX;XK.5._ a i i S V N M a A V M 8 6 2 6 8 2 4 B B M M } :.z.-.g t ",
"6 8 M M M M M M v z 6 z c M A A B ..o...B a V j j.T.-XqXsXjXlXhX-XG.d r 4 4 8 C N N B M } o.A M M 6 i M 8 i A A o.i B :.=.t % 5 ",
"6 2 6 4 4 4 2 2 6 z C S S ........o.o...B a a r k 9.(.7XrXgXjXsX@Xs.q % 4 2 6 z N N A A ..[ A B S B B A A B ..o.A i #.z.=.% $ 5 ",
"9 9 6 2 4 4 4 4 2 8 S O.+.[ ~ ~ B S A A o...[ a u f S.$X,XtXaXrX XQ q $ 2 z z z m C ....[ ....A A A A } O.o...o.i A <.c.V $ $ $ ",
"7 2 2 3 3 3 2 4 2 8 B } B y ! ~ S Z Z A X.o...a * ; , V.C.{.<X9XI.Q e X 2 n b @ c A o.o.[ B A A M A M B #.o.M ..M O.<.;.$   $ $ "
};
