/* XPM */
static char *_182979bcb9846c4e64c01d3173fe39e2KnHgwvDoM5t3gaM[] = {
/* columns rows colors chars-per-pixel */
"64 64 146 2 ",
"   c #857F73",
".  c #868276",
"X  c #8A8277",
"o  c #878578",
"O  c #8C867A",
"+  c #8D897D",
"@  c #918A7E",
"#  c #938D81",
"$  c #969184",
"%  c #999286",
"&  c #9B9589",
"*  c #9E988C",
"=  c #A19A8E",
"-  c #A59E93",
";  c #A9A296",
":  c #AAA69A",
">  c #AEA99D",
",  c #B1AB9F",
"<  c #ADAEA0",
"1  c #B2AEA2",
"2  c #B6B1A5",
"3  c #B9B3A7",
"4  c #B6B7A9",
"5  c #BBB6AA",
"6  c #B7B8AA",
"7  c #BEB9AD",
"8  c #BFBDB0",
"9  c #C1B7AB",
"0  c #C1BBAE",
"q  c #C3BEB2",
"w  c #C8BEB4",
"e  c #C5C1B5",
"r  c #C9C2B6",
"t  c #C7C5B8",
"y  c #CBC6BA",
"u  c #CEC9BD",
"i  c #D1C6BC",
"p  c #D4CDBD",
"a  c #D4CCBF",
"s  c #D6CDBE",
"d  c #D4CEBE",
"f  c #D5CEBE",
"g  c #D5CFBF",
"h  c #D6CFBF",
"j  c #D1CABE",
"k  c #CFCBC0",
"l  c #CECCC0",
"z  c #CFCDC1",
"x  c #CFCDC0",
"c  c #D3CBC0",
"v  c #D0CCC0",
"b  c #D1CDC1",
"n  c #D2CCC0",
"m  c #D3CDC1",
"M  c #D1CDC2",
"N  c #D0CEC2",
"B  c #D1CFC3",
"V  c #D2CEC2",
"C  c #D2CEC3",
"Z  c #D3CFC3",
"A  c #D5CDC0",
"S  c #D4CCC1",
"D  c #D4CEC0",
"F  c #D5CFC1",
"G  c #D6CEC1",
"H  c #D5CDC2",
"J  c #D6CCC2",
"K  c #D7CDC3",
"L  c #D4CEC2",
"P  c #D5CFC3",
"I  c #D7CFC2",
"U  c #D6CEC3",
"Y  c #D7CFC4",
"T  c #D3CDC1",
"R  c #D7D0C0",
"E  c #D7D1C1",
"W  c #D6D0C2",
"Q  c #D7D1C3",
"!  c #D2D0C4",
"~  c #D4D0C4",
"^  c #D5D1C5",
"/  c #D6D0C4",
"(  c #D7D1C5",
")  c #D5D1C6",
"_  c #D4D2C6",
"`  c #D6D2C6",
"'  c #D6D2C7",
"]  c #D7D3C7",
"[  c #D5D1C5",
"{  c #D9D0C1",
"}  c #D8D1C1",
"|  c #D8D0C3",
" . c #DAD1C2",
".. c #D9D2C2",
"X. c #DBD2C3",
"o. c #DAD3C3",
"O. c #D9D1C4",
"+. c #D8D0C5",
"@. c #D8D2C4",
"#. c #D9D1C6",
"$. c #DBD1C7",
"%. c #D8D2C6",
"&. c #D9D3C7",
"*. c #DBD3C6",
"=. c #DAD2C7",
"-. c #DCD3C4",
";. c #DBD4C4",
":. c #DBD5C7",
">. c #DCD5C5",
",. c #DCD4C7",
"<. c #DED5C6",
"1. c #DCD6C6",
"2. c #DDD6C6",
"3. c #D9D2C6",
"4. c #D7D3C8",
"5. c #D6D4C8",
"6. c #DBD3C8",
"7. c #DCD2C8",
"8. c #D8D4C8",
"9. c #D8D4C9",
"0. c #D9D5C9",
"q. c #DAD4C8",
"w. c #DBD5C9",
"e. c #DAD6CA",
"r. c #DBD7CB",
"t. c #D8D6CA",
"y. c #DCD4C9",
"u. c #DED6C9",
"i. c #DCD6CA",
"p. c #DDD7CB",
"a. c #DCD6C8",
"s. c #DBD5C9",
"d. c #DFD8C8",
"f. c #DDD9CD",
"g. c #DED8CC",
"h. c #DFD9CD",
"j. c #DED9CD",
"k. c #DFDDD0",
"l. c #E0D9C9",
"z. c #E0DACE",
"x. c #E1DBCF",
"c. c #E1DACE",
"v. c #E3DDD1",
"b. c #E1DDD1",
"n. c #E3DCD1",
"m. c #E9E1D6",
/* pixels */
": f.b.b ` 8.` ` y 8.b.8.b b ` ` y @.` 8.u.u.b.@.u b ` ` ` ` ` u b x u u b 4.` b b x.:.Q P ..2.y j x.u.f.u.@.@.y y @.8.P 8.u.` b ",
"& b ` y b b b u e b ` u y y b b e b u b P ` u.b 7 e u y y u u e e q 8 8 e u u y y 8.P a j a ..y y ` b ` ` P ` y w b P j j j j ` ",
"$ u b y b b u u e u b u y u b b w u y u b P f.` 5 q y y y u y e 8 8 8 8 e u u y y P j a P j ..y y P u j P P ` r w u b u r q r u.",
"& b ` y b b u u q u ` ` ` ` ` b q u y b ` @.x.@.5 e u u u u u e e e e e y u u y y b u P P j @.j y P u c ` P ` e y u j u r 5 q @.",
"* b P r u j j y q y ` @.` ` P P q b u ` ` ` 8.b 7 r j u u u y e 7 8 e e e y y e r b u a a j ..i e b j ` @.` ` e u u u j u q w @.",
"& j P r u j b j e y a b j j Q 8.e ` b ` 8.` 8.y 7 y b u y u y e 5 7 e e y y y e y @.a a a P @.y w P ` 8.u.@.@.y j j j P ` u j x.",
"% j Q y a a j y w r j j y y a 2.q u u b ` ` ` u 5 r j y y y u y 7 8 e e e y y y r 8.P y y a @.w e ` @.8.` j b r y j u u b u b x.",
"$ j @.u a j r 0 3 w u j r e y a 2 q q e u u ` u 2 q r e w r y r 7 7 7 7 5 8 q q 7 P u 0 0 y i 3 w P b j r q w 5 0 r e q q 0 e P ",
"* i 9 0 r j j y 9 r e 9 0 w e r 3 7 7 6 q e q 5 3 e r q w r w q 2 e e e 8 7 y e w e 0 0 0 w 0 5 7 r q q w e r 2 2 7 5 5 0 0 0 e ",
"= @.y a ..u.2.P y ..P y j P P Q e e e e y u y e y @.@.b @.u.@.8.u 5.! 5.4.4.8.u j j u y i P P j u @.b b ` 8.u.y 7 e e w r y u 8.",
"& ;.a 2.d.d.;.a e a a y i a a a t e e t t t y y y ` Y j P Y P @.y ! u ! 5.8.8.y y r e w r i i y r P y u b P @.e 5 q q 0 q e y u.",
"$ ..Q 2...h a i e a a i p a a a 8 7 7 e e 7 7 e y @.@.c P P j c q u t b 8.8.8.y u u y r y i y r e b y y j j j 7 5 e r w e e y u.",
"$ ..h 2.........e a a i a ..a h 7 7 7 e e 7 q e y @.6.@.7.P i j 7 y u x ` ` 8.y j b a j a P i e e b y u b b j 5 3 w r e r e y @.",
"$ Q a ..h ..2.l.e a h i a ......8 7 8 8 e e e e e c Y Y 7.J i j 5 y u x k u Q y r y j a P P y w q y r y u j j 7 , 5 q w r e y P ",
"@ p y i i p ....y X.X.a ..2.X.2.7 7 6 3 7 e e e r b P Y @.P i J q u u x b b 8.a r y j a P P i e r b y y u b ` e 2 q e r u u u ` ",
"# a r y r y i i 9 y y e r i i i 7 7 2 < 2 e e q q r r r y w q r 3 e 8 e y u ` u 0 q e r r r w 5 e u q 7 0 e y 7 1 5 7 7 w w q y ",
"= a y e 0 w q r 3 3 0 w w 0 5 3 2 7 8 8 y y e e q y y r r y y w 5 y y y y w r e 3 q 3 5 7 3 0 e e u u w 7 7 0 0 5 w w q 0 7 w P ",
"% u u y r y r j 5 7 0 w w w q 7 7 t t t u y e e u @.f.f.g.x.g.@.y u.8.8.8.j j y 7 r 7 0 0 3 0 q u @.u.` j b b j y j b j u y j x.",
"@ y j b u j y P 7 q w e e e r e e u x u b u y y e b u.f.g.x.u.P q ` P @.@.y y e 7 y 0 q q 5 0 0 e b @.P j b j y w y u u u r y u.",
"X e y u r r e j 7 0 w e w w w e 5 t u u b u y y w P f.f.u.u.@.P q P P @.u.b b u 3 e 7 0 q 7 q q r P 8.b j b j r q y j j j y j f.",
"X w r r q e w j 5 0 e e w q 0 q 2 e y u b u e e y 8.b.x.6.6.@.Y e ` P @.f.@.8.` 3 r q q e q e w y ` 8.j u P b y q y j j b u b b.",
"# y y y r u u 8.0 e y y y e e e 7 u ! ! ` b u u u u.n.8.c c P P w P u j ` j b j 5 y e w e w r w u @.8.j u @.@.j w y j j j u b b.",
"% u y y r u y P 0 w y y e w e y q u b u b u y u u u.b.@.j u j j w b y u P u j y 5 y q 0 q 7 w 0 b u.u.b j 8.@.u y b P b j u b b.",
"# e w 0 7 0 5 q 2 5 7 5 5 5 7 q 2 q e 7 q 8 q e q u ` y q 0 w w 3 e q e y e e q , q 5 2 5 3 7 5 q u u q 0 e w 2 7 e e q 0 5 0 j ",
"= ` u e w u e w 3 5 5 3 2 5 0 q 5 q e 7 2 2 5 q 5 r u y r y y r 7 r e r y y b r 5 q w q e y w 3 e r r e e y r w e e q 0 q e y b ",
"* ` P j u 8.` @.5 7 7 3 2 5 7 7 5 q e 8 5 5 7 q w j @.` P Y Y c w j u b P P 8.j 7 e y y y u y r e r y y u b j y y y y y y j @.u.",
"# j b u y b b 8.5 0 0 5 5 7 q q 5 e y e 7 7 q q 0 u ` P J P P u 7 y y j b b ` y 5 e y r w r y y q w w e y j y e w r y y y y P 8.",
"$ ` 8.P y u u 8.3 5 7 5 5 0 e e 3 e y e 7 5 5 7 e j @.P c P P j q u y j b b @.y 0 y P u y y y y y r r y b ` u e r u b j y y P 8.",
"% ` 8.P r y y @.2 5 5 5 5 7 q e 2 q y e 7 5 5 5 y b ` j y j j y w u y y u j @.u 0 r u y y u r q r e e r j P y w y u j u y y P u.",
"& P @.P y j b x.5 7 0 7 5 7 q q 5 e u y q 7 q q y ` @.j y j j u e j y y u b 8.b 5 q w e y u y 7 q q q e y j y w y u j u y j 8.x.",
"- 8.@.` b ` ` v.2 5 7 5 3 5 7 7 5 e y e 7 7 7 q u @.u.` c P Y J y P j b P ` f.` q e e w y j u w e r r r y j u y u j b P P @.u.b.",
"& y e q 7 q 0 y ; > , > > 1 2 2 2 7 8 3 1 > 1 2 3 w r e w w w 0 2 q 7 q w w y 0 3 5 3 1 2 5 5 2 3 5 5 5 5 5 5 3 5 7 q q w w e r ",
"& u r w e b y u w y r e y r e y 2 6 8 7 7 7 q q 5 e u y r y y e 5 e u q 5 5 q q 7 q y u y j j w 7 e e e y e 7 7 y P u w w r i @.",
"+ r y u j ` y y 0 y y y y r y b 1 5 q e e e e q 0 y b y r r r e q y x y e e u u 0 q y u u Y @.y 8 y t e e e 7 7 j @.` u c +.u.m.",
"O y b ` ` @.y y 0 u P u y e y 8.2 7 e t y y e 7 e j P u r r y r 7 t y e q e y y r r y u j 6.u.u e y t q e e q q u ` b y y j P u.",
"# u b P j b y j q j ` j y q w b 5 7 e t y y q 5 w u b y w r y y e u u t e y y e y y u u j @.P w q t e 8 e e q q j @.P u j c P u.",
"$ y u j u j y P q u b j y w 0 e 5 7 e e e e 8 5 w u j y w r y y e u u e e y y e y y j b j P j 5 7 e e e y y q q j ` P j Y 6.u.v.",
"# y u P P ` j @.w u b b P u r y 7 q e e e y y e r b ` j y u j u e y u t e u u y y y P @.Y 6.P q 7 t y t u u y y b 8.` j P @.@.x.",
"# e r j b P y P 7 y y y u y r u 2 7 q q q e y e 0 y b u r y y y e u u y e u u u e y b P j P c w 7 e e 8 e e q e @.u.P u j P P @.",
"# 0 5 0 q e q y 1 7 0 7 7 5 5 e : 1 4 2 2 2 5 5 > 5 q 0 0 0 q 7 1 6 7 2 1 2 2 2 5 7 e e 0 w w 3 1 4 2 > 2 2 2 2 0 w 7 3 7 q w r ",
"$ r w w e u r y 5 e y y y u y e 5 t y y b b u u 3 y y j P y u y y t e e y y y y q y u r y @.Y r e t 7 y b u b y y r 0 0 y j j @.",
"@ 0 5 7 q y r u 5 w y r r y y e 7 t y y b b y u 7 u r u P u j y u u x u b b u e q y y w r P c e e y e u u y u y y y w e y y j u.",
"# w 7 0 w j u P 5 w r e r y y q 7 t y y u u y u q j r u P j j y e y u u u u e 7 e j j r y P P r q y y u u y u y y j u y j j P x.",
"% r w w r j y P 7 w e w e y y q 7 t t e y y e y 0 j y u P y u r q y x x b b u q q y j y y P j e 7 e e y u y b y u b u u P c P g.",
"# w q q e u e y 0 e e q w y y e 7 t e q e e e y 5 b b P P y y y q u x u u b u e 3 w y y y j y q 7 e q t y y u e j j y y P P c @.",
"# e w r y j y u w y y e w y u y e u y e y y y u 0 @.@.8.@.u c b e u b y y u y e 5 y b P P @.c r e u t y u u b e b j y y @.@.P 6.",
"$ e w e r u r y 7 e r 0 5 q r y q t e 7 e e y u 0 b j j j r j j y ! ! u y u u e 7 r j j j c j r q u t e e e y q y y r r j j j @.",
"@ 7 5 5 5 7 3 7 , 5 7 1 > 1 5 7 2 6 2 1 2 5 7 q 2 w 7 7 0 5 q q 1 7 q 5 2 7 7 2 1 5 0 0 7 0 7 5 1 7 5 5 1 2 7 5 5 0 7 7 q 0 q u ",
"$ b b y b y b u q e y y e q e y 7 y j j @.@.b b y P b y y y y y u b b u u b u e e b ` b u u y q j 8.u y y j P w 2 e y e e y u ` ",
"+ y y e u t b b 8 8 e e e e e t q u j j ` ` b P w u j y u y r y y u b u u b u e e u ` b u u y q y Y y r r y j q 2 e e q e t u ! ",
"+ t y t u y ! ! q q q e e t y t w j b u b P b @.7 y j u b j y y y b b x b b u e u b ` b b ` u e u @.j y y y c w 7 y y e y u u ` ",
"+ t y y ! u ! b 7 e e t t t t e 0 y j y u u u ` 5 r u u b u r r t x ! b b b u e b b b b ` 8.b e u @.j j u y b e q y y y u u u ! ",
"+ y u u 8.u b u 5 e y y e e e q 5 y u y u u y b 7 y y y u y e r e u ` b u b u y u u u y b ` b e r c y y y r y q 7 e y y u u y u ",
"# y u b 8.b ` b 7 y u y q q q q 7 y j j P P b ` q u j u j u y y y b ` b b b b u y u y e u ` b e r P j P j y b r 7 e y u u y t x ",
"$ y e y b y u u 7 e e 7 5 7 q 7 5 e r r u j j b 7 y y y u y e r e u b u y u u y e e e q e u y e w j u c j y j r 5 q e e t q e x ",
"$ q 7 5 q 5 q q 5 5 2 > > 2 5 2 1 5 3 2 0 w w e , 5 q 0 w q 5 5 5 q e q 7 q q 7 5 5 5 2 5 q q 5 1 0 0 w q 5 q 5 1 5 5 5 6 2 5 y ",
"* 8.P 8.b u j ` y b b j P b b @.y b P b P j u P 7 j @.P ` ` P ` y ` 8.8.8.b y y y ` u e e u 8.u y j c c b b y q y u u y u t t b ",
"= 8.b b j b @.u.w u j b ` P b @.y P P b ` b b 8.0 j P j P P b P e ` 8.` ` b u y e ` u y y b ` y y j j j j j y q u b u y u t t b ",
"# b y j u j j j w u u j P P b 8.r u u y j u u P w j b y b P j j e 8.8.b ` 8.b u y ` u y u b 8.y r i j j j j y e u u u y u u y ! ",
"% 8.@.8.` ` ` ` r y y r y u j 8.j ` ` ` 8.@.P 8.q u u y j b y y e 8.8.b b 8.b y y b y e e u ` y w r y j j b u r e y y y x u y ! ",
"# Y c P y y j +.y j j j Y @.@.x.w y u j ` P u b r P b u P ` j u u f.f.` ` 8.b y y ` u y u b 8.u r u P +.` Y b y e u b b ` u u ` ",
"% P P x.6.j j Y w y u c u.6.+.u.q y y j @.@.P ` e j j r y j y y y ` b y u u y e q u u u u y b e r j P c j u y e e u b b u t e b ",
"- Y j x.g.y r j y P c P u.u.6.u.q r r y b b j P u @.P y y j P 8.` ` u y u u u b y ` b b u u ` b j P @.P b b P b y ` ` ` x y u k.",
"O ; O # # X O * # # + X @ # # % + @ O X @ # @ # @ % #     O # * & # X . + X + & + $ # X . . & & + @ @ O O # % & . # # + + o $ : "
};
