/* XPM */
static char *_34f2d9cde924d2a85b83cfc69ca796054ZaFg4kdD4fA673[] = {
/* columns rows colors chars-per-pixel */
"64 64 256 2 ",
"   c #020605",
".  c #001203",
"X  c #071314",
"o  c #021926",
"O  c #050F2B",
"+  c #0B2C33",
"@  c #783818",
"#  c #6E340A",
"$  c #733A28",
"%  c #5F3D3C",
"&  c #3F523C",
"*  c #754610",
"=  c #534C34",
"-  c #76512A",
";  c #70482D",
":  c #10334B",
">  c #065157",
",  c #33524A",
"<  c #3A664B",
"1  c #085B6C",
"2  c #02646B",
"3  c #036775",
"4  c #0E7073",
"5  c #236169",
"6  c #4F5044",
"7  c #6E5046",
"8  c #5C6B57",
"9  c #4F787C",
"0  c #853811",
"q  c #84431B",
"w  c #824109",
"e  c #A4521E",
"r  c #894734",
"t  c #AF6430",
"y  c #986D50",
"u  c #B47250",
"i  c #C66F4C",
"p  c #1A9277",
"a  c #A99079",
"s  c #057388",
"d  c #03848B",
"f  c #399696",
"g  c #0B9CB1",
"h  c #2387A2",
"j  c #03BBBE",
"k  c #16AEB4",
"l  c #32B2AF",
"z  c #00B69E",
"x  c #50B4B6",
"c  c #69B3AE",
"v  c #4D8C95",
"b  c #12C3B1",
"n  c #35C8B5",
"m  c #4FC4B9",
"M  c #61CCB8",
"N  c #03BBC9",
"B  c #17BCC8",
"V  c #04BCD6",
"C  c #17B4CE",
"Z  c #2ABDCF",
"A  c #03BEEC",
"S  c #07BEE8",
"D  c #08BDF2",
"F  c #12BEE9",
"G  c #55BCCB",
"H  c #03C8CB",
"J  c #17C8CA",
"K  c #01C4D4",
"L  c #00CBD5",
"P  c #01C4DC",
"I  c #01CBDD",
"U  c #0BC7D8",
"Y  c #16C9D7",
"T  c #01D4DB",
"R  c #08D6D9",
"E  c #17D7DC",
"W  c #0FD4CD",
"Q  c #26C9D8",
"!  c #25D4DC",
"~  c #32CCCF",
"^  c #06E2DA",
"/  c #01C5E4",
"(  c #0AC5E5",
")  c #00CBE4",
"_  c #0CCCE4",
"`  c #01C5EB",
"'  c #01CBEB",
"]  c #0ACDEB",
"[  c #0AC4EA",
"{  c #17CBE3",
"}  c #01D3E4",
"|  c #0BD3E4",
" . c #01DBE4",
".. c #0CDCE5",
"X. c #01D4EC",
"o. c #0AD5EC",
"O. c #01DBEC",
"+. c #0CDCED",
"@. c #13D6EB",
"#. c #18D9E8",
"$. c #02C4F2",
"%. c #0AC3F4",
"&. c #02CBF3",
"*. c #02CBFC",
"=. c #08C7F9",
"-. c #02D4F3",
";. c #0AD4F4",
":. c #02DBF4",
">. c #0ADBF3",
",. c #02D5FB",
"<. c #03DCFA",
"1. c #0ADCFB",
"2. c #0AD5FC",
"3. c #13DBF4",
"4. c #1CDBF3",
"5. c #17D9F9",
"6. c #11C5F6",
"7. c #25DAE7",
"8. c #35D9E8",
"9. c #27DDF5",
"0. c #32D3EC",
"q. c #00E4E5",
"w. c #02E3EC",
"e. c #09E4EA",
"r. c #14E5EB",
"t. c #01E2F4",
"y. c #0BE2F4",
"u. c #02E2FB",
"i. c #0BE4FC",
"p. c #02EBFD",
"a. c #0CEBFE",
"s. c #06EAF5",
"d. c #14E2F5",
"f. c #1BE2F4",
"g. c #14E4FB",
"h. c #1CE5FC",
"j. c #14EBFE",
"k. c #1BECFE",
"l. c #18EAF5",
"z. c #1CF3FF",
"x. c #17F0F8",
"c. c #07F5F7",
"v. c #26E6EA",
"b. c #37E6EA",
"n. c #23E5FD",
"m. c #23ECFD",
"M. c #2AECFD",
"N. c #29E7F4",
"B. c #3AEBFE",
"V. c #36E7F8",
"C. c #23F3FE",
"Z. c #2CF3FE",
"A. c #26F7FB",
"S. c #3BF2FC",
"D. c #3CFDFF",
"F. c #33F4FC",
"G. c #3EF2E7",
"H. c #37EDDE",
"J. c #4FD1D4",
"K. c #65D8D7",
"L. c #72D0D0",
"P. c #56E6D8",
"I. c #71E8D5",
"U. c #45DBE9",
"Y. c #5BDAF9",
"T. c #50D4EA",
"R. c #68DBE8",
"E. c #79D6EA",
"W. c #46E6E8",
"Q. c #4BEDFD",
"!. c #43E8F8",
"~. c #53EBFC",
"^. c #59E7F8",
"/. c #43F4FD",
"(. c #4CF5FE",
"). c #45F8FC",
"_. c #54F4FD",
"`. c #5CF5FF",
"'. c #5CFDFF",
"]. c #57F7F9",
"[. c #52EFEA",
"{. c #67E5E7",
"}. c #77E7E9",
"|. c #69F4ED",
" X c #76F3E8",
".X c #64ECFD",
"XX c #69E7F9",
"oX c #78EBFA",
"OX c #6DF4FF",
"+X c #67F8FC",
"@X c #7AF4FD",
"#X c #76F8FB",
"$X c #8EBDAC",
"%X c #A2ACA0",
"&X c #A7CFBD",
"*X c #E6DAB7",
"=X c #F6DBBA",
"-X c #FBE4BC",
";X c #E8E6BF",
":X c #D8D4BB",
">X c #87DBD9",
",X c #8DD4CD",
"<X c #AED7D2",
"1X c #88E1D8",
"2X c #99E7D9",
"3X c #92EBD2",
"4X c #A7E8DA",
"5X c #B0EFDA",
"6X c #83DBEC",
"7X c #87E8E6",
"8X c #99EAE9",
"9X c #87F7E6",
"0X c #96F8E8",
"qX c #89EAF6",
"wX c #96E8FA",
"eX c #84FDFF",
"rX c #8AFDFF",
"tX c #87F6FD",
"yX c #93FEFF",
"uX c #9BFCFD",
"iX c #97F5FA",
"pX c #A8EDE6",
"aX c #AAF7E8",
"sX c #B7FBEB",
"dX c #B8EAF5",
"fX c #A5FDFF",
"gX c #ABFEFE",
"hX c #A9F6FA",
"jX c #B3FDFE",
"kX c #BBFEFF",
"lX c #B9F9F3",
"zX c #AFEBED",
"xX c #A2DDEF",
"cX c #CAD9CA",
"vX c #E7DAC9",
"bX c #D9E7CB",
"nX c #D8E8D9",
"mX c #D8F7DD",
"MX c #CCEFD7",
"NX c #E9E8C9",
"BX c #FAE9C7",
"VX c #FAF2CA",
"CX c #EBE8D8",
"ZX c #F9EAD7",
"AX c #E8F4DB",
"SX c #F7F4D4",
"DX c #C6EBEB",
"FX c #D3EDE4",
"GX c #CAF5E7",
"HX c #D8F8E8",
"JX c #CAFEFF",
"KX c #C6FCFB",
"LX c #DAFAFD",
"PX c #C9EDF4",
"IX c #E6F5E9",
"UX c #EFF1ED",
/* pixels */
"] ` ` ` / ) X.:.1.<.<.<.<.<.<.i.<.<.<.u.:.:.:.u.:.u.<.u.u.i.z.g.i.>.' / / / &.,.<.-.-.<.<.X.) ) =.$.A A ` -.i.a.a.t.X.) ) ) ' ` ",
"] ` ` ` ` ` X.:.1.:.:.1.1.:.-.<.<.<.<.1.:.:.:.:.<.u.:.<.-.:.l.y.y.>.X.) ) ' ,.<.<.<.<.i.i.-.X.o.` ` ` ` X.y.j.i.i.:.X.) ) ' ' ` ",
"' ` ` ` ` ` X.:.1.1.1.1.1.-.-.-.-.-.<.1.:.:.:.:.:.<.:.<.O.+.m.m.y.:.O.-.-.1.1.i.u.u.u.<.X.) P V P } o.o.4.n.n.;.>.X.) ) ` ` [ [ ",
"` ` ` ` ` ` X.:.1.:.:.1.,.-.' ' -.-.:.1.:.1.u.u.<.<.:.1.+.4.F.F.d.1.O.-.-.1.i.i.<.<.<.:.-.X.X.I #.N.F.N.V.B.N._ ) ) ) / ` ` [ S ",
"` ` ) ` ` ` -.1.:.-.X.-.-.' ' ' ' ' X.X.-.:.<.i.<.i.1.3.@.7.B.V.l.y.O.X.X.-.:.<.<.:.:.-.:.g.3.@.(.'.'.(./.S.N.@.I / / ` ' ` ` ` ",
"` ` ` ' ' ' -.1.-.' ` ` ' ` ` ` ) ) ) ' ' -.<.<.,.<.2.5.9.V._.(.Z.j.d.>.:.:.:.:.u.t.:.:.y.g.f.7.#XeX#X'./.F.N.| ) / ` ` &.&.' ` ",
"/ ) ' -.:.-.:.1.-.` / ` ' ' ` ` / / ) ) ` ' &.,.&.,.;.n.B._.+X'.D.A.k.l.i.i.u.t.:.:.t.a.z.Z.D.+XuXgXyX+Xb.r.w.O.) ` ` ` &.&.' ' ",
"/ ) -.1.i.1.1.1.-.` ` ` &.' ' ` / / ) ` ` ' ' &.&.&.] 9.B._.+X'.).A.C.j.j.i.u.:.t.t.u.a.k.m.D.+XgXkXuX+XN.w.q. .' ` ` ` ` ' ' ' ",
"X.-.1.1.1.1.-.' ` ` ` ` ' ` ' ` / ) ' ` ` ` ` ' &.' / 4.B.(.+X'.N.l.d.y.y.y.:.:.:.t.t.t.O.@.M._.iXhX@X_.m. .w.t.-.&.` [ ' ` ) ) ",
"-.:.i.1.1.1.-.' ` ` ` ` ` ` ' ` / ` ' ' ` ` ` ' ` ` / 4.B./._.(.N.d.>.o.O.>.:.:.:.t.t.:.X.o.f.B.XXoX~.S.k.w.t.t.<.-.&.` [ ' ) ) ",
"-.:.1.:.-.X.' ` ` ` ` ` ` ` ` ` ` ` ' ' / ` / ` ` ` / 5.M.B./.V.f.>.X.) ' -.:.<.u.<.<.:.O.o.@.4.9.9.9.m.j.i.i.<.<.1.-.] [ [ ( / ",
"-.:.:.-.' ` / / ` ` ` ` ` ` ` ` ` ` ' ' / / / ) ` ` / 3.m.M.N.7.+.o.) ) / ' -.<.<.<.<.<.:.O.o.>.X.:.O.j.z.j.j.1.1.1.-.;.] / [ ( ",
":.:.:.-.X.` ` ` ` ` ` ` ' ' ' ` ` $.] ` / / / ) ' ' / :.h.d.4.| } ' ) ` ` &.&.,.,.,.<.<.u.:.>.:.:.t.t.a.z.z.k.1.1.1.1.-.' ` / ( ",
":.:.:.-.' ) ` ' ` ` ` ` ' ` ` ` $.$.&.' ) ) / ) ) ' ) :.i.>.O.I ) ) ` ` ` $.&.&.&.&.,.<.u.<.:.:.u.p.t.a.z.z.j.1.-.:.:.-.X.` ` ` ",
"-.:.:.-.' / / ' ` ` ` ` ' ` ` ` $.$.&.' ) ) / ) ) X.X.u.i.-.X.I ) ) ` ' $.$.$.&.$.&.,.<.u.<.:.t.:.u.:.t.a.a.j.t.O.:.:.-.X.' &.,.",
"<.<.1.1.-./ / ' ` ' ` ` ' ` ` ' ` $.&.' ) / / ) } O.O.a.a.-.X./ ` ` ` ` ` ` ` $.` ` ,.<.u.u.u.<.-.1.X.-.t.t.c.t.w.t.:.X.) ' X.:.",
",.<.1.;.' / ) ' ' ' $.$.$.&.' ' / [ ` ` / [ [ ) }  .w.y.3.o.' ` %.D %.A ' ) ) I ( [ ;.:.<.:.:.<.1.' <.<.u.t.p.t.t.t.} I ) } I O.",
",.<.1.-.' ) ) ' ' ' $.` ` ` ` / / / ` ` ` [ ` ) }  . ...@.] ) / %.%.A ` ' X.) / [ [ ] -.-.X.O.:.` z.k.' | #.U E J ! 8.7.N.f.>.y.",
";.;.:.-.X.) ) ) ` ` ` ` ) ) / / ` ` ' &.&.` ` ' }  . .O.>.o.X.` / &.' >./ ' ' ,.$.$.$.&.` ) } +.u.O.K Q ~ J.f 5 c c L.G U.V.y.:.",
"-.>.:.:.O.} ) ) ' ' ` ` ) ) ) ) &.` $.&.&.` ] 3.3.l.m.k.d.>.X.) X.} I ) ) -.` ` $.=.*.&.` ) _ +.w...~ l 5 , 6 = = 6 , 5 h U.j.p.",
":.t.t.t.:.-.' ` ` ` ' ` ' ) ) ' &.` ` $.` A [ 4.!._.'.).M.+.} I T I T K K N V F D %.&.,.-.' &.@.H J f , = ; * * - - % 6 5 T...w.",
"w.t.t.u.<.,.=.$.` ` ` ` ` ` ` ` &.$.` ` / P P { ^.@XeX#X(.N.r. .L K U N Y V { { ( / ' -.-.' ' { b p < 7 u i t w # * $ 7 , L.! e.",
"O.O.-.1.1.2.=.%.D D $.$.$.D D D [ ] ] ' } } | Q XXwXhXuX@X`.!.N.r.K C Z .X+Xv.N L P I ) ) ) ] Q M < = y i t e w # * ; 7 , ,XJ.H.",
"E | o.>.1.2.=.$.$.$.$.&.$.$.D D [ ;.3.:.t.w.e.7.@XiXjXgXyXeXOX[.! ! J.wXuXeX7.j L K K I } | @.~ , = - u i e # w * * ; = , ,XI.P.",
"8.8.#...w.t.X.) / X.X.:./ <.` 2.' :.1.:.t.s.c.l.~.eXuXiXyXtXoX}.I.I.PXLXdXfXJ j L I ) P ) ..7.d = - # q 0 0 0 q # - ; = 8 4XhX9X",
"rXOXW.v.r.r.r.r.N.7.7.#.f.l.:.u.i.a.a.u.t.t.t.q.S.`.#XOXOX.XXX}.0X5XnXUXDX,Xl k Q 0.{ 9.} #.Q 3 6 # r @ q 0 q @ y y = 6 FXKXpXjX",
"kXgXiX@X+X+X].].{.}.qX}.^.b.^ c.p.p.i.<.<.<.u.<.g.f.#.#.r.v.b.[.0XGXnXAXHX5X,XL.>XL.~ 7.U U J.5 = r $ @ @ u -X-X-XBXZXUXDXLXJXhX",
"jXhXhXfXuXrX X X1XlXPXKX>XP.b ^  .X.&.$.$.*.*.,.` } } T H R v.[.I.sXmXmXMXMXHXHXHXDXgXtX|.l G : % $ $ $ BX-X-X-XBXNXIXFXdXxXhXjX",
"uXiXiXfXfXiX0X2XGXIXCXUX5X9Xb z L ) ` $.%.D D A ` ) K L H R R J P.L.>XGXHXbXNXNXBXNXAXmXGX$X$X6 ; r y =XVX*X-XVXa . + 2X6XR.qXE.",
"oXoXoXtXtXqX8X4XIXCXZXCXIXKXI.n B V U ] 6.%.%.%.S V V Y k Z k k x L.,X,XcXNXBX-XVXBXNXVXNXNXSX*Xa $ =XSX*XVXBXNX8 . + 7XXX#X^..X",
"T.T.U.~.].{.>X<XnXbXAXbXcXHXLXdXJ.Z N K ) ) ` / ( C g h : O O o X <XHXmXNXBX-X=XBXNXNXSXNXZXZXBX-XBXVX-X-XVX*XCXcX<XL.P.b.4.d.j.",
"U.8.N.F./.^.qXdXDXDX5X3Xc lXLXJXjX}.~ b J Y Y C C 3 + : O O O X   ZXbXbXSXBX-XBXBXNXSXNXZXZXNXAXHXMXbXNXBX:XAXmXsXI.J.W.R s.t.t.",
"{ @.r.C.b.[.iXkXhX6XJ.Q J Y U.XXhXsXsX3XM x x x 5 o . X     o   %XNXSXSXvXZX=XBXBXBXBXBXZXUXHXzXm J.8XDX<X&X$X0Xn ~ E e.+.:.:.:.",
"-.>.s.x.v.b.XXtX@X~.4.:.O.} I Q {.1X2X5X5XaXsXsX<X, .   X     X cXSXCXNXZXZXZXBXNXNXBXZXCXUXGXiX7.R 8.K.L.L.x ~ W R w.:.-.-.-.-.",
",.-.t.e.e.R E 7.#...O.t.u.O.] _ #.8.[.}.>X2X5XsXKX<X9 o + : : + nXCXbXcXCXvXCXbXnXmXnXIXnXFX5X}.#.-.X._ Y Y U ] :.<.,.,.*.$.$.&.",
"<.<.t.s.w. .T  .w.t.t.u.:.X.] ' / V { ^.rXgXaX2X2XaXv > : : : + <XnXFXMXFXcXGX5X5X4X4X4X<X4X2XK.@.u.p.t.X.O.-.<.,.,.,.*.*.$.` ` ",
"<.<.:.:.y.w.t.t.t.u.i.<.-.` ) ] ;.] ;.[ N B J.7XiX8Xx 3 4 1 1 > c 4X4X4X,X,XI.K.P.J.K.L.8X4X4XL.7.;.:.O.w.s.-.-.&.*.=.=.` ) I T ",
"<.<.:.-.-.O.-.:.X.<.u.<.:.-.1.3._ ( -.X.I Y J.K.1X1XiX2 2 3 2 2 f 8X>X7XK. X[.G.W W 8.P.iXzXsX1X0.;.>. .e.s.O.) ` ` %.` ) I L H ",
"p.p.p.u.u.:.:.:.1.i.i.u.t.t.w.O.P _ 3.] V Z K.7X,X2X>X4 3 1 1 s s }.K.{.P.[.v.r. . .9..XwXKXFXpX7.<.i.y.+.+.| o./ ` ` ` ` ) ) I ",
"-.:.u.<.:.:.-.-.1.1.t.:.t.s.t.} ..Y Y Y 8..XtXiX0XiX4 > 2 s 3 s s `.Q.(.!.v.T } O.u.4..X6XJXGXjX#.-.>.o.@.@._ ] ' ` ` ` $.&.&.' ",
"F V 5.1.:.-.1.1.i.u.p.O.w.t. .} N W W.|. X X|.|.~ J g d 3 3 d g | ......R | O.t.u.:.5.0.}.8XaX0XW O.o.@.{ U / ' ' ' $.$.$.=.*.*.",
"F V ;.;.-.:.X.O.>.O.+.} | #.{ { /.[.|. X X|.].).U K V B B N H T  .t.w. .O.o.-.u.u.,.5.0.R.7X2X9X[.E B Z Q C V ) X.&.$.%.%.=.*.*.",
"/ I ) X.X.:.) } I { 0.!..XXXY.XXtX9X7X}.{.U.#.&.$.A / { #.#...e.-.:.>.>.;.;.1.<.<.-.9.T.}.7X2XaX9X X7XiXyX#X7.N } ) / [ ( [ ) ) ",
"I X.) X.X.-.I | N.S._.`.OXOXY.XXoXoX X+X_.V.;.&.<.,.&.o.o.>.:.u.1.1.;.;.3.3.1.1.:.o.B.Y.qX8XaXsXsXsXpX>XqX#XV.N I ) I ( ( P I L ",
"/ ;.` -.X.X.) 4.D.).F.7.7.N.4.4.#.E #...+.X.X.X.>.O.w.t.u.u.<.<.1.1.1.<.<.u.t.t.w.r.(.XXiXjXjXaX2XaXaX7XoXOXN.N } } ) / [ ' ) ) ",
"[ ;.' -.-.X.4.V.V.7.E L T w.:.:.X.X.O.-.-.:.:.+.}  .w.t.u.<.<.1.1.1.<.u.u.u.t.w.q.v.+X@XjXJXKXaX8X7XE.K.T.8.7.| O.O.} ) ` ' &.&.",
"F %.&.:.-.X.M.!.!.J R q.q.w.-.' 1.<.i.u.u.t. . .w.t.t.u.<.<.y.y.X.:.u.u.u.u.t.w...b.#XuXJXLXJXjXiXoX{.R.Y.U.b.F.r. .} } ' *.*.*.",
"6.A &.-.-.} S.!.Q.N H q.q. .:.1.1.<.<.<.<.t.w.q.} O.-.<.<.-.} I } -.u.u.u.t.w.e.v.W.rXfXKXkXfXyXOX`.~.~._._./.Z.l.e. .X.-.,.*.*.",
"%.$.=./ ' ) n.).n.I I O.t.u.:.<.<.1.1.1.1.1.:.:.X.X.X.X.X.X.} ) X.X.-.u.t.t.w.r./.^.tXuXrXOX!.S.M.m.n.n.f.f.m.C.y.y.:.X.-.,.,.2.",
"*.&./ / ) | d.Z.} I X.' X.i.u.<.<.<.1.1.1.:.-.-.' ` ' ' ) ` ` ` ) ' -.:.t.w.w.l./.^.@XtXOX(.x.c.a.i.:.:.>.:.y.j.a.y.:.X.>.:.:.-.",
"` ` V }  .e.L I P I ] ` ` <.u.:.:.t.u.u.:.-.X.' ' ' ' ' &.&.&.' / ' -.:.:.:.s.j.F.V.~.`.Q.V.e.w.:.-.X.X.} X.O.y.z.g.>.X.X.X.' ' ",
"/ ' } l.z.C.R L _ V ( [ ` X.X.t.t.t.t.:.O.X.' ' ` ` ` ` ` $.$.$./ ' ;.1.i.u.a.j.l.#.7.9.9.f.O.O.:.-.' ' ) ) X.:.C.j.1.) I / ) ' ",
"P ) #.v.D.D.S.V.{ V P P / X.-.:.t.t.:.X.' ) / ` ` ` ` %.%.%.%.$./ X.3.h.k.k.j.a.s.} O.+.o.1.:.:.-.&.` ` ) ) ) X.k.k.g.>.) P ) ' ",
"U Y 8.b.'.`.`.Q.7.{ _ P I g.j.y.:.O.O.} ) / / ` [ ` ` ` %.%.%.] ) X.5.n.M.C.j.p.p. .t.O.-.1.<.,.-.&.' ` ) ) ) X.1.j.k.g.X.P P I ",
"0.!.^.OXyXyX@X.XV.N.d.I ) j.k.>.:.w.O.X.) ) ' ' ` / / / / / ) ) o.3.n.M.M.k.i.t.p.w.p.t.:.u.,.,.=.] ] ] ` ) ' X.X.g.k.k.1.) I I ",
"Q.~.Y.oXuXgXrXOX_.M.l. .} O.X.X.t.t.t.O.X.X.X.X.>.>.o.o.| | ....#.m.Z.M.n.g.:.X.t.O.p.p.u.u.,.&.$.` ` ' ` ` ' X.X.1.k.m.k.d.f.f.",
"V.!.^.oXiXuXoX^.(.M.l.t.O.t.j.j.t.t.t.O.X.X.X.o.5.@.7.v.7.b.b.b.S.S.F.m.g.y.<.:.t.t.t.t.u.i.<.&.` $.` ` &.` / -.X.g.k.m.D.F.m.Z.",
"7.8.Q..X#XrXOX~.V.f.y.s.t.a.j.j.j.a.a.i.:.>.3.4.V.V.Q.+X.XOX#X|._./.F.l.y.-.O.-.:.t.:.:.u.1.-.' ` ` ` ' ' ' ' :.:.g.d.d.C.Z.Z.Z.",
"K U 7.N./.(.V.N.#.o.X.-.:.u.a.a.i.g.j.g.g.5.n.B._.+XeXuXgXjXkXfXOX(.M.l.t.O.X.:.1.>.>.-.:.1.-.` / / ` ` / ` -.:.-.i.g.g.Z.Z.m.f.",
"P P ..r.l.C.r.#.o.) / ) ) O.t.:.-.1.i.i.1.5.n.B.`.OXrXgXjXJXLXkX@XQ.v.r.O.X.X.1.1.;.-.O.:.1.-.' ` / ` ' / ) :.:.-.-.y.k.C.h.@._ ",
") ) X.O. .w. . .X./ / / ` X.:.O.-.:.u.u.:.-.>.3.B.~.#XyXfXkXJXjX@X!.#.} ) ) ' -.2.;.:.-.t.u.:.-.-.` X.-.' X.<.:.u.X.:.j.g.| I _ ",
"` / ) ) I I P I ' ` &.2.1.1.u.:.:.u.u.u.:.-.-.X.#.V.`.#XuXjXKXgXOX!.{ I ) ` ` $.;.2.1.:.t.t.1.:.1.>.:.1.:.:.u.u.:.X.i.C.g.I P _ ",
"=.A ` / / ) / ` ` ' ,.1.<.1.i.1.:.:.<.<.u.u.t.:.} #.!..X@XuXgXuX.XV.{ P / &.$.$.=.,.u.u.t.t.t.:.:.:.:.t.i.u.u.u.X.:.z.A.>.I P I ",
"6.A D S [ [ / ' ` ' ,.,.,.-.1.1.1.1.1.<.u.u.u.:.) | 8.U.K.7X0XqXY.0.{ V / &.=.A &.<.u.u.t.:.:.:.-.:.-.:.a.u.-.u.-.i.z.j.P N P P "
};
