/* XPM */
static char *cb389bcc6491440c879c7d9bd2316de7pXLzFIivCDigDB98[] = {
/* columns rows colors chars-per-pixel */
"64 64 256 2 ",
"   c #753817",
".  c #703B14",
"X  c #763A29",
"o  c #6E3D2E",
"O  c #5F3920",
"+  c #3E472B",
"@  c #7A430F",
"#  c #554C30",
"$  c #794427",
"%  c #6A4C31",
"&  c #58401A",
"*  c #00394D",
"=  c #00395A",
"-  c #003C63",
";  c #2D544E",
":  c #2D635B",
">  c #005569",
",  c #055A75",
"<  c #004E6D",
"1  c #006375",
"2  c #006C75",
"3  c #0F5E58",
"4  c #4E5349",
"5  c #726D6E",
"6  c #637054",
"7  c #833828",
"8  c #833F02",
"9  c #89470F",
"0  c #B46F1F",
"q  c #89532C",
"w  c #946D34",
"e  c #BC7A2B",
"r  c #B77336",
"t  c #A96D2F",
"y  c #A77543",
"u  c #188379",
"i  c #026786",
"p  c #057785",
"a  c #027895",
"s  c #11698D",
"d  c #095B81",
"f  c #018B98",
"g  c #139198",
"h  c #008EA2",
"j  c #019AAA",
"k  c #009BB3",
"l  c #178AA3",
"z  c #05A9B7",
"x  c #08B7BB",
"c  c #15B0B3",
"v  c #2CA9B5",
"b  c #3A9AB2",
"n  c #73B6B7",
"m  c #58A093",
"M  c #29CBBB",
"N  c #1BD1BB",
"B  c #61CCBD",
"V  c #53C6B5",
"C  c #04BAC9",
"Z  c #00BDD6",
"A  c #06BDD9",
"S  c #16BAD1",
"D  c #39B9C5",
"F  c #0ABFEC",
"G  c #01BDE7",
"H  c #13BCE7",
"J  c #5BB4C7",
"K  c #03C7C9",
"L  c #03D4CC",
"P  c #02C4D4",
"I  c #01CBD5",
"U  c #01C4DC",
"Y  c #02CBDC",
"T  c #0CCAD8",
"R  c #16CADC",
"E  c #01D3DC",
"W  c #0BD3DC",
"Q  c #01DBDD",
"!  c #08D6D6",
"~  c #18D6DA",
"^  c #13C5C8",
"/  c #26C9DA",
"(  c #28D9DB",
")  c #37D7DB",
"_  c #31CACF",
"`  c #0DE5D7",
"'  c #31E2DD",
"]  c #01C5E4",
"[  c #01CAE4",
"{  c #01C5EB",
"}  c #0AC4EC",
"|  c #01CAEB",
" . c #0AC9E6",
".. c #16CCE6",
"X. c #01D3E4",
"o. c #0CD3E4",
"O. c #02DBE5",
"+. c #0BDAE4",
"@. c #01D3EC",
"#. c #0BD4ED",
"$. c #02DBED",
"%. c #0BDCEC",
"&. c #13D4E4",
"*. c #15DAE4",
"=. c #13DAEC",
"-. c #1BDBED",
";. c #1AD8E7",
":. c #03C5F2",
">. c #0AC4F3",
",. c #01CBF3",
"<. c #0BCBF4",
"1. c #01C5FB",
"2. c #06CCFC",
"3. c #15CAF5",
"4. c #02D4F3",
"5. c #0BD4F4",
"6. c #02DCF4",
"7. c #0BDBF4",
"8. c #02D4FB",
"9. c #0AD5FB",
"0. c #03DCFB",
"q. c #0BDCFB",
"w. c #13DBF4",
"e. c #1BDCF3",
"r. c #13DDFD",
"t. c #17D5F8",
"y. c #27CBE5",
"u. c #26DAE7",
"i. c #38D9E6",
"p. c #25DDF5",
"a. c #39DBF6",
"s. c #38CBE5",
"d. c #02E3EC",
"f. c #07E4E9",
"g. c #19E4EA",
"h. c #01E2F4",
"j. c #0CE2F4",
"k. c #02E2FC",
"l. c #0BE4FD",
"z. c #03EBFE",
"x. c #0CEAFE",
"c. c #06EAF3",
"v. c #13E3F4",
"b. c #1BE3F4",
"n. c #13E4FC",
"m. c #1BE4FC",
"M. c #14EBFD",
"N. c #1CECFD",
"B. c #18EAF4",
"V. c #08F2FF",
"C. c #1BF2FF",
"Z. c #18F4FC",
"A. c #28E3EA",
"S. c #38E3E8",
"D. c #24ECFE",
"F. c #2BEBFD",
"G. c #2AE5F6",
"H. c #34EBFD",
"J. c #3AEBFE",
"K. c #37E7F6",
"L. c #24F3FF",
"P. c #2CF4FF",
"I. c #28FAFC",
"U. c #34F3FE",
"Y. c #39F8FD",
"T. c #33F4E7",
"R. c #5AC7C8",
"E. c #48DDDE",
"W. c #59D8DA",
"Q. c #4FCECF",
"!. c #68DCD9",
"~. c #77DBD9",
"^. c #72D0D0",
"/. c #6BE2D8",
"(. c #77E4D9",
"). c #47DAE7",
"_. c #5AD7E6",
"`. c #4ED3F2",
"'. c #67DDE5",
"]. c #63D7F0",
"[. c #47E5EA",
"{. c #5DE6EB",
"}. c #56E6E9",
"|. c #56F6EB",
" X c #45ECF4",
".X c #4CEBFC",
"XX c #47E8F7",
"oX c #54ECF4",
"OX c #53ECFD",
"+X c #59E7F9",
"@X c #43F3FE",
"#X c #4CF4FE",
"$X c #46FAFC",
"%X c #55F3FE",
"&X c #5CF4FE",
"*X c #5CFEFF",
"=X c #57FAFA",
"-X c #66E7EA",
";X c #75EAEA",
":X c #68F4EB",
">X c #76F4ED",
",X c #67EAF7",
"<X c #78EAF8",
"1X c #64F2FD",
"2X c #6BF3FE",
"3X c #64FEFF",
"4X c #6CFEFF",
"5X c #64F7F3",
"6X c #73F4FF",
"7X c #74FCFF",
"8X c #7BFCFE",
"9X c #7AF5F9",
"0X c #51E8DB",
"qX c #ABAC96",
"wX c #B3BAA4",
"eX c #8CB1A5",
"rX c #C6B2A9",
"tX c #B6CEB3",
"yX c #9CC3B1",
"uX c #D1D9BC",
"iX c #81BCC4",
"pX c #86D7D6",
"aX c #93D4CE",
"sX c #A8DBCE",
"dX c #87E5DA",
"fX c #95E4D7",
"gX c #8BECD2",
"hX c #B2EBD3",
"jX c #87E5E7",
"kX c #97E5E5",
"lX c #96F7E9",
"zX c #89E7F3",
"xX c #82FDFF",
"cX c #8CFDFF",
"vX c #87F6F9",
"bX c #94FDFF",
"nX c #9BFDFF",
"mX c #98F5F8",
"MX c #8DF0EB",
"NX c #A7EDF8",
"BX c #A3FEFF",
"VX c #AAFDFF",
"CX c #A5F5FB",
"ZX c #B7FDFF",
"AX c #ACEDE6",
"SX c #8CD9ED",
"DX c #D7F4D8",
"FX c #D1ECD2",
"GX c #ECF1CD",
"HX c #C6F6E7",
"JX c #C5FAFB",
"KX c #D5FCFC",
"LX c #D6F8EB",
"PX c #F3ECE2",
"IX c #F5F2E9",
"UX c #E8DEDD",
/* pixels */
"} { { { ] [ @.6.0.0.0.0.q.0.q.l.0.0.q.k.6.6.6.k.6.k.0.k.k.l.C.v.l.7.| ] ] ] ,.8.q.4.4.0.0.@.[ [ ,.,.{ U [ %.M.L.n.9.,.{ { { ] U ",
"} { { { { { @.6.0.6.6.0.0.6.4.0.0.0.0.0.6.6.6.6.0.k.6.0.4.6.B.j.j.7.@.[ [ | 8.0.0.0.0.l.l.4.@.@.] { | [ @.v.N.C.l.9.,.,.,.}  .[ ",
"| { { { { { @.6.0.0.0.q.0.4.4.4.4.4.0.0.6.6.6.6.6.0.6.0.$.%.D.D.j.6.@.4.4.0.q.l.k.k.k.6.@.[ U Z P [ +.X.%.B.M.l.4.4.| { ,.| { ] ",
"{ { { { { { @.6.0.6.6.0.9.4.| | 4.4.6.0.6.0.k.k.0.0.6.q.7.e.U.U.v.q.$.5.4.0.l.l.0.0.0.6.4.#.@.Y ~ A.K.g.g.B.n.@.[ [ ] ] { | { { ",
"{ { [ { { { 4.q.6.4.@.4.4.| | | | | @.@.4.6.q.l.0.q.0.w.=.u.J.H.B.j.$.@.@.4.6.0.0.6.6.4.6.n.w.;.oX4X3X$XU.P.M.7.[ [ ] { | ,.,.,.",
"{ { { | | | 4.q.4.| { { | { { { [ [ [ | | 4.0.0.8.0.9.e.p.K.=X#XP.M.v.7.6.6.6.6.k.h.6.6.j.n.b.i.xXbXxX3X@XU.N.7.[ [ [ { | ,.,.,.",
"] [ | 4.6.4.6.q.4.{ ] { | | { { ] ] [ [ { | ,.8.,.8.5.G.J.%X4X*XY.I.N.B.l.l.k.h.6.6.h.x.C.P.Y.3XnXVXbX2X.XG.w.| [ [ ] [ { ,.,.,.",
"] [ 4.q.l.q.q.q.4.{ { { ,.| | { ] ] [ { { | | ,.,.,.<.p.J.%X4X*X$XI.L.M.M.l.k.6.h.h.k.x.M.D.Y.3XBXVXbX6X.Xp.t.| { [ | | | ,.,.,.",
"@.4.0.0.q.q.4.| { { { { | { | | ] [ | { { { { | ,.| ] e.J.#X3X*XG.B.v.j.j.j.6.6.6.h.h.h.$.=.F.#X8XbX8X&XK.t.5.| 9.| [ ] { { | { ",
"4.6.l.q.q.q.4.| { { { { { { | { ] { | | { { { | { { ] e.J.@X%X#XG.v.7.%.$.7.6.6.6.h.h.6.@.#.b.H.&X1XXX@XG.7.4.6.6.4.| { | } { ] ",
"4.6.0.6.4.@.| { { { { { { { { { { { | | ] { ] { { { ] w.H.J.@XK.b.7.@.[ | 4.6.0.k.0.0.6.$.O.=.b.e.b.*.L.M.h.$.h.0.0.4.,.| } { ] ",
"4.6.6.4.| { ] ] { { { { { { { { { { | | ] ] ] [ { { ] w.D.F.G.u.#.O.[ [ ] | 4.0.q.0.0.0.6.$.#.7.@.O.O.Z.Z.x.x.h.6.0.0.8.,.| ] ] ",
"6.6.6.4.@.{ { { { { { { | | | { { :.} { [ ] ] [ | | ] 6.m.v.e.o.X.| [ { { ,.,.8.8.8.0.0.k.6.7.6.6.$.d.f.I.L.I.g.6.0.0.8.,.{ ] U ",
"6.6.6.4.| [ { | { { { { | { { { :.:.,.| [ [ ] [ [ | [ 6.l.7.$.Y [ [ { { { :.,.,.,.,.8.0.l.0.6.0.k.6.%.~ Y.T.Y.;.#.0.0.8.,.| [ Y ",
"4.6.6.4.| ] ] | { { { { | { { | :.:.,.| [ [ ] [ [ @.@.k.z.4.@.Y [ [ { | :.:.:.,.:.,.8.0.0.0.6.0.9.5.R S.=X5X|.i...9.0.8.8.| [ X.",
"0.0.0.0.4.[ [ | | { { { | { { { :.:.,.:.{ ] ] [ [ @.4.x.x.6.@.] { | { { { { { ,.,.,.,.9.q.6.6.q.3.y.D vXlXnX:XXX..9.0.0.8.| @.4.",
"$.6.h.6.@.[ [ @.[ [ [ { { { F >.:.{ >.F F <.{ { [ | 6.l.n.q.<.:.1.1.{  .Y Y [ [ | 0.>.t.} 7.q.=.i.R.KXDXFXhXcXi.3.8.z.0.@.{ :.q.",
"4.6.0.6.4.| | | | | { { { } } } :.{ <.>.>.>.{ { [ X.$.h.q.9.:.:.1.1.}  .Y Y Y ] { 4.<.3.A o.T _ vXHXPXGXDXhXW.@X5.8.0.k.z.M.8.8.",
"9.9.9.9.<.{ } { } | { { { { } { { ] ,.,.{ { ] @.X.O.d.d.h.4.@.{ ] ] { { | | } { ,.{ ] [ K c D ZXLXPXPXPXAXMX^ W 7.z.4.k.k.Z.M.v.",
"8.9.9.2.<.:.>.} >.<.} } } | | | { ] | 4.{ ] ] %.%.j.B.B.j.%.X.Y T P ] ,.,.,.H F ,.{ #.T z Q.CXHXUXPXIXJXR.) ~ b.v.M.6.z.h.$.f.Q ",
"0.0.0.8.8.,.:.:.:.:.:.| | @.X.X.| ] @.@.[ [ Y -.H.$X$X$XK.-.W K L I | 1.1.>.H A ] @.C c W.lXJXHXLXHXkXQ.T Y Y p.@XH.%.d.z.O.c.f.",
"0.0.0.0.0.8.,.,.{ { { { { [ X.[  .]  .[ [ U U ;..X3X7X7X&XXXu.~ L L :.1.1.>...R [ Y c R.ZXJXHXJXlXB Q.) -.o.y./ ,X-XS.A.*.E %.$.",
"$.$.6.6.0.0.8.| { { { { { [ [ [  . .@.@.X.X.[ y.+XvXnXnXvX2XOXK.! E 1.F 1.<.o.W Y C nXKXDXLXAXV M c Q.W.D v R.J iXaXaXdXR.}.u.r.",
"W W O.$.d.$.@.[ { { { { { [ [ [  . .q.6.6.k.w.p.1XcXVXBXbX8X1X@Xg.d.2.1.:.| Y I P / JXUXIXDXm Q.M M u 3 : ; ; 4 # # + # ; pX_.OX",
"~ ( ! ! Q Q d.X.[ @.@.@.@.[ [ 4.[ @.6.k.h.k.n.G.%X7XcXcX8X8X).@XP.v.r.{ | Y Y I Z s.JXPXGXGXAXR.R.3 4 # # & % w y w t t q # NXCX",
"=X=XS.' ' ~ g.+.B.v.7.7.x.x.x.Z.l.x.z.k.6.4.@.o.@X=X&X1X&X&XoX X@XH.H.e.+.Y X.[ ] s.JXUXGXGXAXn n 4 # . q t r r r e e 0 r . 5 JX",
"VXBXvXvX8X7X3X#X@XY.Y.L.m.9.9.q.k.z.l.q.9.9.r.w.=.g.~ ( S.) oX[..XXX.XS.~ K [ ,.:.y.ZXDXGXGXHXeX5 %   @ @ 9 t r r e e 0 r $ # PX",
"VXVXCXnXnXbX8X,X.X$XY.P.m.4.{ 8.@.4.8.,.:.}  . .W I L K ^ S }.).+X+X{.E._ x  .5.,.S mXDXGXGXDXeXo 7   @ @ 9 9 9   8 9 9 9   % uX",
"BXBXBXVXVXBXvX-X3X@Xg.%.j.0.,.| { | } } F F } U P C ^ x c c _.,XW.;X(.~.Q._ y.e.t./ pXHXDXGXDXtXO $   $ . $         9 q 7 X 4 wX",
",X;XzXzXmXmXzX<X{.S.~ E $.@.| { { | } { { ] ] A R S z f > * * * J mXCXCXlXxX4X*X#X[.^.hXFXDXDXFX% $ . $ O o X X q O $ X X % + yX",
"i.).,X<XzXCXCXnXQ.) ~ E O.@.4.9.5.#.| [ ] [ U Z j h 1 1 , > , , , SXkXfXgXMX;X:X:X>XpXsXhXFXLXDXw & % % % % X o % & % # # 4 : aX",
"~ ( oX'.~.kXjXvX9X}.( T +.$.@.#.#.#.&.&.u.K.XXOX6X].i , , > , > > zXNXfXgX(.^.(.!.;XpXaXsXsXHXFXtXqXuXFXwXwXqXrXqXtXtXsXeXm B !.",
";.R i.W.dXfXdX!.!.}.S.G.Y E L ! K W S.5XvXmXNXNXZXNX- < = * * > 1 D <XjXjX~./././.(.dXpXkXaXAXfXkXfXfXfXsXsXsXsXsXsXfXMX>Xc ~ ~ ",
"@.#.U.[.MXgXMX;XW.}.K.F.v.f.f.g.F.K.}./.dXfXkXkX^.b a l a l p g f v _.!.!.;X;X-X>X>X;X;XjXpXjX~.-X{.-X>XvXMXMXMXlXvX8X&X#XK %.O.",
"k.@.h.u.>XMX<X_._.i.e.@.4.@.7.p.a.).}.{.|.0X_ N ( K K C C z f g g v ;X'.!.'.W.}.[.}.}.}.:X;X>X:X( u.i.).{.-X-X{.}.oX Xu.p.U t.{ ",
"z.$.@.-.0X-X,X+XOXK.D.k.x.x.F.H..X.X.X$X$XT.` L Q L K x x j f g 2 p ;X;X-X{.).[.i.[.S.[.}.}.:X|.*.X.Y T R / / / ^ R T P ] G t.>.",
"O.X.o.*X7X9Xi.u.~ ~ g.7.M.l.n.7.m.g.*.W L L L I ~ j z j i s d , 1 1 -X{.}.}.).).s.).).).).).}. XN.l.$.@.@.$.$.+.Y U ] ] { G 2.1.",
"W Y [ =X4X3X~ P ! ! +.%.n.6.7.@.Y E E E E Y X.o.A j a a i s s s i p ,X{.}.E.E.).).XX).a.i.a.J.U.n.l.k.h.k.k.h.$.@.| { | :.{ :.:.",
"u.-.4.j.W ! $.V.f.f.O.O.@.4.@.@.Y Y E [ | @.0.n.-.u.h f f a a a i a ,X}.-X}.-X,X1X&XK.F.w.r.r.q.q.q.6.6.h.k.h.@.@.{ | { { { ] { ",
"....0.@.O.E h.4.O.+.W %.X.$.@.=.*.=.n.l.k.0.0.6.w.z C z k z k k k h )._ {.{.-X}.[. X*.v.6.z.q.0.q.j.6.6.6.k.6.4.| | 4.{ ] | [ [ ",
"T @.6.V.K E 6.[ &.u.A.K.H.H.K.K.K.G.w.6.0.k.k.0.#.P z j j k k k C W ~ ) ).|.E.) ~ ! d.z.z.z.8.q.$.$.$.7.5.| { { | | | [ [ [  . .",
"I O.@.l.u.S.F.G.[.[.).i.i.i.[. XJ.F.m.q.0.k.0.4.%.C j f f z C T W ~ S. X=XS.S.T.+.Q d.h.k.k.6.l.h.d.h.l.9.,.{ { { | { { { [  . .",
"K X.U S 6X<X2X1X,X,X-X{.}.}.[.[.*.%.6.6.0.0.8.4.#.W T T W =.j.-.XX,X1X+XoXS.-.f.d.$.h.$.O.d.Q f.d.$.6.h.0.,.{ G :.:.:.,.| { { { ",
"E X.Z S vXzX<X,X,X,X+XoX X XS.S.I X.$.4.6.0.0.6.@.o.o.o.+.$.$.&.).'._.).) A.O.$.h.6.7.#.;.A.` ` c.c.h.h.6.4.,.:.:.:.>.>.:.:.| { ",
"| ] G S 9XzX<X`.`.i.-.%.6.%.*.*.O.$.6.6.6.6.6.6.x.j.w.#.5.7.7.-.}.W._._.XXW E d.h.w.a.`.,X7X=X$XU.N.j.6.$.@.{ { ,.:.>.>.:.,.| | ",
",.{ G ..2X;X+Xs./ ..@.0.k.k.$.+.h.h.k.h.6.6.6.k.4.6.q.q.q.q.9.#.#XoX8X+X*XT O.O.h.e.+X<XmXBXcX7X=XJ.G.-.=.$.#.5.5.| { { { | | { ",
"{ | Z A.5X:X( T P [ 0.k.k.k.6.6.6.h.6.6.6.6.7.6.q.0.0.0.0.0.l.l.E g.XX).OXK.g.Q d.g.OX9XCXVXBXbX6X&X.XXX@XJ.U.P.v.%.@.[ | | | | ",
"] r.Z G.=X|.K K I [ ,.8.8.0.6.l.0.6.6.6.6.7.5.@.4.4.8.4.0.0.8.@.$.O.C #XXX*X( A.! *.#X7XcXBXBXnX2X%X.X.X#X@XU.P.B.j.$.@.@.@.4.5.",
"t.} ] e.K.;.P U [ { ,.8.0.6.6.$.6.6.h.h.k.6.6.4.| | { { | | | { 5.[ U ;. X4X8X9X,X[.S.K.@X#X,X&XH.D.m.m.B.B.N.L.l.j.6.$.@.4.4.9.",
"G ] [ U U U U { { { { ,.4.6.k.6.6.h.h.k.k.6.4.4.{ ] ] ] { { ] ] :.:.X.+.A.[.<XvX<X}.A.D.I.P.J.H.m.l.6.7.4.6.j.M.x.j.6.@.7.6.6.4.",
"[ Y P I -.G.o.P | ] { | @.6.6.4.h.h.h.k.h.4.@.| ,.| ,.,.,.,.:.| { ,.@.E L ~ i.oX&XXXu.v.Z.M.v.#.q.5.@.@.X.@.$.j.C.M.7.@.@.| | | ",
"P U X.B.Y.K.;.=.[ ] { { | 4.4.[ h.h.h.h.$.@.{ { | { { { { :.:.| ,.8.h.$.Q ! A.U.K.p.=.j.x.c.h.$.6.4.| | [ [ @.6.L.M.q.[ U ] [ | ",
"P I W A.#XOXK.K.&.Y ] ] [ 4.q.@.7.6.$.@.[ ] { { { :.>.>.>.{ :.,.| 4.6.n.B.N.N.C.j.h.6.0.k.k.h.6.4.4.{ { [ [ [ @.M.M.n.7.[ U [ | ",
"T &.~ i.2XxX1XS.u.&.U U [ 0.n.n.7.%.#.[ ] ] { { { :.:.:.{ { | | @.@.7.m.F.D.M.h.h.h.k.k.0.6.6.4.4.,.| { [ [ [ @.q.M.N.n.@.U U U ",
"y.XX%X2XcXnXxX1XS.u.o.[ @.k.M.l.6.6.$.@.[ [ { | ] { [ [ ] Y [ [ j.n.F.J.J.F.n.6.k.k.k.0.0.4.4.| ,.} } } { [ | @.#.n.N.N.7.[ Y Y ",
".XOX+X6XBXVXcX2X XG.b.$.$.k.q.4.6.h.6.$.@.| @.@.5.7.%.+.o.W +.*.&.G.J.J.H.m.q.0.k.k.0.0.q.9.@.{ { { { | { { | @.@.7.N.D.M.v.b.b.",
"a.XX+X,XvXnXxX+X#XU.B.h.h.z.l.l.k.k.k.4.@.@.@.@.=.;.u.u.u.S.[.[..X.X@XH.m.q.0.0.q.0.0.9.9.r.5.{ ] :.{ { ,.{ ] 4.#.n.M.D.Y.Y.D.P.",
"p.K.XX&XxXcX7XoXK.b.g.h.z.z.x.x.V.V.z.z.0.6.7.e.H.J.%X1X,X>X>X;X2X&X@XF.n.4.6.q.9.9.0.6.q.q.#.[ ] { { | | | | 6.6.n.v.v.L.P.P.P.",
"Y X.*.G.OX&X.XA.*.+.X.$.k.z.x.z.z.z.x.x.n.m.F.J.&X2XcXBXVXZXJXVX<X.XG.v.$.X.@.0.q.q.0.6.h.6.#.[ ] ] { { ] { 4.6.4.l.n.n.P.P.D.b.",
"Y X.O.g.G.K.A.*.+.E U [ @.h.6.6.4.0.k.l.l.n.D.J.&X6XbXVXZXKXKXJX8XXXA.f.$.@.4.r.q.0.h.h.h.h.5.| { ] { | ] [ 6.6.4.4.j.N.L.m.#.o.",
"[ X.$.$.o.&.o.+.X.[ ] [ @.6.4.4.6.k.k.k.6.4.7.=.H.OX6XbXVXJXKXZX2XK.o.X.X.] | 5.4.6.h.c.c.k.0.9.4.{ @.4.| @.0.6.k.@.6.M.n.o.Y  .",
"] [ X.[ U Z U [ { | 4.q.k.k.6.4.6.k.k.k.6.$.$.X.-.S.&XxXnXVXJXVX1XA.Y Y ] ] ] { #.7.h.h.h.k.q.9.q.7.6.0.6.6.k.k.6.@.x.L.n.Y U  .",
">.:.| { ] ] ] { { ,.9.r.l.k.h.6.6.q.0.0.k.h.h.$.+.;. X1X9XbXBXbX1XK.o.[ @.4.,.}  .#.7.6.6.k.k.k.0.6.6.k.l.k.k.k.@.6.C.I.7.U U U ",
">.F { { } } { { { ,.t.r.0.6.6.6.9.7.9.0.k.k.h.$.E W u.[.{.;XmXvX}.i.U U { 4.| { } ..w.$.4.6.k.k.6.6.4.6.x.k.4.k.4.l.C.M.U C U U "
};
